<svg xmlns="http://www.w3.org/2000/svg" xmlns:xlink="http://www.w3.org/1999/xlink" width="400" zoomAndPan="magnify" viewBox="0 0 300 74.999997" height="100" preserveAspectRatio="xMidYMid meet" version="1.0"><defs><g/></defs><g fill="#191919" fill-opacity="1"><g transform="translate(4.854916, 49.842242)"><g><path d="M 13.796875 -11.984375 L 23.265625 -11.984375 L 23.265625 0 L 19.484375 0 L 19.171875 -3.8125 L 18.125 -1.4375 C 16.820312 -0.15625 14.914062 0.484375 12.40625 0.484375 C 9.132812 0.484375 6.535156 -0.597656 4.609375 -2.765625 C 2.691406 -4.941406 1.734375 -7.890625 1.734375 -11.609375 C 1.734375 -15.378906 2.820312 -18.382812 5 -20.625 C 7.1875 -22.863281 9.957031 -23.984375 13.3125 -23.984375 C 16.382812 -23.984375 18.78125 -23.238281 20.5 -21.75 C 22.226562 -20.257812 23.21875 -18.300781 23.46875 -15.875 L 23.5 -15.53125 L 18.796875 -15.53125 L 18.734375 -15.875 C 18.117188 -18.9375 16.289062 -20.46875 13.25 -20.46875 C 11.320312 -20.46875 9.75 -19.695312 8.53125 -18.15625 C 7.3125 -16.613281 6.703125 -14.523438 6.703125 -11.890625 C 6.703125 -9.046875 7.289062 -6.859375 8.46875 -5.328125 C 9.65625 -3.796875 11.203125 -3.03125 13.109375 -3.03125 C 14.628906 -3.03125 15.894531 -3.492188 16.90625 -4.421875 C 17.914062 -5.359375 18.535156 -6.65625 18.765625 -8.3125 L 13.796875 -8.3125 Z M 13.796875 -11.984375 "/></g></g></g><g fill="#191919" fill-opacity="1"><g transform="translate(29.37647, 49.842242)"><g><path d="M 2.625 -24.15625 C 3.101562 -24.625 3.726562 -24.859375 4.5 -24.859375 C 5.269531 -24.859375 5.890625 -24.625 6.359375 -24.15625 C 6.835938 -23.695312 7.078125 -23.101562 7.078125 -22.375 C 7.078125 -21.625 6.835938 -21.019531 6.359375 -20.5625 C 5.890625 -20.113281 5.269531 -19.890625 4.5 -19.890625 C 3.726562 -19.890625 3.101562 -20.113281 2.625 -20.5625 C 2.144531 -21.019531 1.90625 -21.625 1.90625 -22.375 C 1.90625 -23.101562 2.144531 -23.695312 2.625 -24.15625 Z M 6.84375 0 L 2.140625 0 L 2.140625 -18.125 L 6.84375 -18.125 Z M 6.84375 0 "/></g></g></g><g fill="#191919" fill-opacity="1"><g transform="translate(37.856824, 49.842242)"><g><path d="M 10.65625 -19.578125 L 8 -19.578125 L 10.65625 -23.609375 L 14.890625 -23.609375 Z M 12.671875 0 L 12.328125 -2.65625 L 11.4375 -0.71875 C 10.257812 0.0820312 8.765625 0.484375 6.953125 0.484375 C 5.296875 0.484375 3.910156 0.0195312 2.796875 -0.90625 C 1.679688 -1.84375 1.125 -3.140625 1.125 -4.796875 C 1.125 -6.796875 1.96875 -8.332031 3.65625 -9.40625 C 5.351562 -10.488281 7.835938 -11.03125 11.109375 -11.03125 L 12.265625 -11.03125 L 12.265625 -11.40625 C 12.265625 -12.132812 12.238281 -12.703125 12.1875 -13.109375 C 12.03125 -14.566406 11.101562 -15.296875 9.40625 -15.296875 C 7.519531 -15.296875 6.507812 -14.273438 6.375 -12.234375 L 1.8125 -12.1875 C 1.875 -14.1875 2.625 -15.753906 4.0625 -16.890625 C 5.507812 -18.023438 7.347656 -18.59375 9.578125 -18.59375 C 14.085938 -18.59375 16.503906 -16.8125 16.828125 -13.25 C 16.890625 -12.382812 16.921875 -11.453125 16.921875 -10.453125 L 16.921875 -4.59375 C 16.921875 -3.207031 17.035156 -1.675781 17.265625 0 Z M 8.75 -2.828125 C 9.75 -2.828125 10.582031 -3.164062 11.25 -3.84375 C 11.925781 -4.53125 12.265625 -5.472656 12.265625 -6.671875 L 12.265625 -8.140625 C 8.085938 -8.429688 6 -7.441406 6 -5.171875 C 6 -3.609375 6.914062 -2.828125 8.75 -2.828125 Z M 8.75 -2.828125 "/></g></g></g><g fill="#191919" fill-opacity="1"><g transform="translate(56.418274, 49.842242)"><g><path d="M 3.40625 -15.953125 C 5.0625 -17.710938 7.363281 -18.59375 10.3125 -18.59375 C 13.269531 -18.59375 15.578125 -17.710938 17.234375 -15.953125 C 18.890625 -14.191406 19.71875 -11.894531 19.71875 -9.0625 C 19.71875 -6.25 18.890625 -3.953125 17.234375 -2.171875 C 15.578125 -0.398438 13.269531 0.484375 10.3125 0.484375 C 7.363281 0.484375 5.0625 -0.398438 3.40625 -2.171875 C 1.75 -3.953125 0.921875 -6.25 0.921875 -9.0625 C 0.921875 -11.894531 1.75 -14.191406 3.40625 -15.953125 Z M 7 -4.46875 C 7.800781 -3.375 8.90625 -2.828125 10.3125 -2.828125 C 11.726562 -2.828125 12.835938 -3.375 13.640625 -4.46875 C 14.441406 -5.570312 14.84375 -7.097656 14.84375 -9.046875 C 14.84375 -11.003906 14.441406 -12.535156 13.640625 -13.640625 C 12.835938 -14.742188 11.726562 -15.296875 10.3125 -15.296875 C 8.90625 -15.296875 7.800781 -14.742188 7 -13.640625 C 6.195312 -12.535156 5.796875 -11.003906 5.796875 -9.046875 C 5.796875 -7.097656 6.195312 -5.570312 7 -4.46875 Z M 7 -4.46875 "/></g></g></g><g fill="#191919" fill-opacity="1"><g transform="translate(76.478266, 49.842242)"><g/></g></g><g fill="#191919" fill-opacity="1"><g transform="translate(82.506461, 49.842242)"><g><path d="M 17.546875 0 L 11.75 -8.890625 L 6.234375 0 L 0.640625 0 L 9.0625 -11.859375 L 1.21875 -23.5 L 6.671875 -23.5 L 11.921875 -14.8125 L 17.4375 -23.5 L 22.859375 -23.5 L 14.640625 -11.953125 L 23.03125 0 Z M 17.546875 0 "/></g></g></g><g fill="#191919" fill-opacity="1"><g transform="translate(104.950494, 49.842242)"><g><path d="M 27.21875 -21.390625 L 27.453125 -21.015625 C 27.203125 -19.765625 26.832031 -18.628906 26.34375 -17.609375 C 25.851562 -16.585938 25.09375 -15.722656 24.0625 -15.015625 C 23.03125 -14.316406 21.582031 -13.84375 19.71875 -13.59375 L 19.71875 0 L 15.84375 0 L 15.15625 -2.390625 L 14.84375 -2.390625 C 14.257812 -1.429688 13.445312 -0.734375 12.40625 -0.296875 C 11.375 0.128906 10.289062 0.34375 9.15625 0.34375 C 7.164062 0.34375 5.566406 -0.191406 4.359375 -1.265625 C 3.148438 -2.347656 2.546875 -4.082031 2.546875 -6.46875 L 2.546875 -18.59375 L 7.625 -18.59375 L 7.625 -7.734375 C 7.625 -6.390625 7.863281 -5.382812 8.34375 -4.71875 C 8.820312 -4.050781 9.582031 -3.71875 10.625 -3.71875 C 12.164062 -3.71875 13.21875 -4.242188 13.78125 -5.296875 C 14.351562 -6.347656 14.640625 -7.863281 14.640625 -9.84375 L 14.640625 -18.59375 L 19.71875 -18.59375 L 19.71875 -16.65625 C 20.5625 -16.925781 21.1875 -17.488281 21.59375 -18.34375 C 22 -19.195312 22.203125 -20.210938 22.203125 -21.390625 Z M 17.75 -26.09375 L 17.75 -25.75 C 17.425781 -25.4375 17.003906 -25.050781 16.484375 -24.59375 C 15.960938 -24.132812 15.398438 -23.65625 14.796875 -23.15625 C 14.203125 -22.65625 13.613281 -22.179688 13.03125 -21.734375 C 12.445312 -21.296875 11.941406 -20.929688 11.515625 -20.640625 L 8.140625 -20.640625 L 8.140625 -21.078125 C 8.503906 -21.515625 8.929688 -22.019531 9.421875 -22.59375 C 9.910156 -23.175781 10.382812 -23.78125 10.84375 -24.40625 C 11.3125 -25.03125 11.71875 -25.59375 12.0625 -26.09375 Z M 17.75 -26.09375 "/></g></g></g><g fill="#191919" fill-opacity="1"><g transform="translate(130.255382, 49.842242)"><g/></g></g><g fill="#191919" fill-opacity="1"><g transform="translate(136.283578, 49.842242)"><g><path d="M 21.421875 -19.828125 L 13.453125 -19.828125 L 13.453125 0 L 8.75 0 L 8.75 -19.828125 L 0.78125 -19.828125 L 0.78125 -23.5 L 21.421875 -23.5 Z M 21.421875 -19.828125 "/></g></g></g><g fill="#191919" fill-opacity="1"><g transform="translate(156.922554, 49.842242)"><g><path d="M 8.40625 -19.578125 L 5.515625 -19.578125 L 7.703125 -23.609375 L 11.40625 -23.609375 L 13.59375 -19.578125 L 10.65625 -19.578125 L 9.53125 -21.9375 Z M 12.671875 0 L 12.328125 -2.65625 L 11.4375 -0.71875 C 10.257812 0.0820312 8.765625 0.484375 6.953125 0.484375 C 5.296875 0.484375 3.910156 0.0195312 2.796875 -0.90625 C 1.679688 -1.84375 1.125 -3.140625 1.125 -4.796875 C 1.125 -6.796875 1.96875 -8.332031 3.65625 -9.40625 C 5.351562 -10.488281 7.835938 -11.03125 11.109375 -11.03125 L 12.265625 -11.03125 L 12.265625 -11.40625 C 12.265625 -12.132812 12.238281 -12.703125 12.1875 -13.109375 C 12.03125 -14.566406 11.101562 -15.296875 9.40625 -15.296875 C 7.519531 -15.296875 6.507812 -14.273438 6.375 -12.234375 L 1.8125 -12.1875 C 1.875 -14.1875 2.625 -15.753906 4.0625 -16.890625 C 5.507812 -18.023438 7.347656 -18.59375 9.578125 -18.59375 C 14.085938 -18.59375 16.503906 -16.8125 16.828125 -13.25 C 16.890625 -12.382812 16.921875 -11.453125 16.921875 -10.453125 L 16.921875 -4.59375 C 16.921875 -3.207031 17.035156 -1.675781 17.265625 0 Z M 8.75 -2.828125 C 9.75 -2.828125 10.582031 -3.164062 11.25 -3.84375 C 11.925781 -4.53125 12.265625 -5.472656 12.265625 -6.671875 L 12.265625 -8.140625 C 8.085938 -8.429688 6 -7.441406 6 -5.171875 C 6 -3.609375 6.914062 -2.828125 8.75 -2.828125 Z M 8.75 -2.828125 "/></g></g></g><g fill="#191919" fill-opacity="1"><g transform="translate(175.484013, 49.842242)"><g><path d="M 19.046875 -13.515625 C 19.128906 -12.703125 19.171875 -11.601562 19.171875 -10.21875 L 19.171875 0 L 14.46875 0 L 14.46875 -9.578125 C 14.46875 -10.640625 14.445312 -11.476562 14.40625 -12.09375 C 14.25 -14.226562 13.09375 -15.296875 10.9375 -15.296875 C 9.707031 -15.296875 8.71875 -14.722656 7.96875 -13.578125 C 7.21875 -12.429688 6.84375 -10.664062 6.84375 -8.28125 L 6.84375 0 L 2.140625 0 L 2.140625 -18.125 L 6.84375 -18.125 L 6.84375 -15.1875 L 8.25 -17.34375 C 9.425781 -18.175781 10.878906 -18.59375 12.609375 -18.59375 C 14.515625 -18.59375 16.015625 -18.148438 17.109375 -17.265625 C 18.210938 -16.378906 18.859375 -15.128906 19.046875 -13.515625 Z M 19.046875 -13.515625 "/></g></g></g><g fill="#191919" fill-opacity="1"><g transform="translate(196.054868, 49.842242)"><g/></g></g><g fill="#191919" fill-opacity="1"><g transform="translate(202.083072, 49.842242)"><g><path d="M 23.40625 -23.5 L 23.40625 0 L 18.734375 0 L 18.734375 -9.640625 L 7.734375 -9.640625 L 7.734375 0 L 3.03125 0 L 3.03125 -23.5 L 7.734375 -23.5 L 7.734375 -13.390625 L 18.734375 -13.390625 L 18.734375 -23.5 Z M 23.40625 -23.5 "/></g></g></g><g fill="#191919" fill-opacity="1"><g transform="translate(227.115489, 49.842242)"><g><path d="M 27.21875 -21.390625 L 27.453125 -21.015625 C 27.203125 -19.765625 26.832031 -18.628906 26.34375 -17.609375 C 25.851562 -16.585938 25.09375 -15.722656 24.0625 -15.015625 C 23.03125 -14.316406 21.582031 -13.84375 19.71875 -13.59375 L 19.71875 0 L 15.84375 0 L 15.15625 -2.390625 L 14.84375 -2.390625 C 14.257812 -1.429688 13.445312 -0.734375 12.40625 -0.296875 C 11.375 0.128906 10.289062 0.34375 9.15625 0.34375 C 7.164062 0.34375 5.566406 -0.191406 4.359375 -1.265625 C 3.148438 -2.347656 2.546875 -4.082031 2.546875 -6.46875 L 2.546875 -18.59375 L 7.625 -18.59375 L 7.625 -7.734375 C 7.625 -6.390625 7.863281 -5.382812 8.34375 -4.71875 C 8.820312 -4.050781 9.582031 -3.71875 10.625 -3.71875 C 12.164062 -3.71875 13.21875 -4.242188 13.78125 -5.296875 C 14.351562 -6.347656 14.640625 -7.863281 14.640625 -9.84375 L 14.640625 -18.59375 L 19.71875 -18.59375 L 19.71875 -16.65625 C 20.5625 -16.925781 21.1875 -17.488281 21.59375 -18.34375 C 22 -19.195312 22.203125 -20.210938 22.203125 -21.390625 Z M 27.21875 -21.390625 "/></g></g></g><g fill="#191919" fill-opacity="1"><g transform="translate(252.420375, 49.842242)"><g><path d="M 19.046875 -13.515625 C 19.128906 -12.703125 19.171875 -11.601562 19.171875 -10.21875 L 19.171875 0 L 14.46875 0 L 14.46875 -9.578125 C 14.46875 -10.640625 14.445312 -11.476562 14.40625 -12.09375 C 14.25 -14.226562 13.09375 -15.296875 10.9375 -15.296875 C 9.707031 -15.296875 8.71875 -14.722656 7.96875 -13.578125 C 7.21875 -12.429688 6.84375 -10.664062 6.84375 -8.28125 L 6.84375 0 L 2.140625 0 L 2.140625 -18.125 L 6.84375 -18.125 L 6.84375 -15.1875 L 8.25 -17.34375 C 9.425781 -18.175781 10.878906 -18.59375 12.609375 -18.59375 C 14.515625 -18.59375 16.015625 -18.148438 17.109375 -17.265625 C 18.210938 -16.378906 18.859375 -15.128906 19.046875 -13.515625 Z M 19.046875 -13.515625 "/></g></g></g><g fill="#191919" fill-opacity="1"><g transform="translate(272.991229, 49.842242)"><g><path d="M 19.75 -18.125 L 19.75 -4.53125 C 19.75 -2.851562 19.738281 -1.679688 19.71875 -1.015625 C 19.625 1.753906 18.734375 3.84375 17.046875 5.25 C 15.359375 6.65625 13.046875 7.359375 10.109375 7.359375 C 7.484375 7.359375 5.429688 6.820312 3.953125 5.75 C 2.472656 4.6875 1.632812 3.15625 1.4375 1.15625 L 1.390625 0.8125 L 5.953125 0.8125 L 6 1.125 C 6.113281 1.96875 6.535156 2.628906 7.265625 3.109375 C 8.003906 3.597656 8.976562 3.84375 10.1875 3.84375 C 11.664062 3.84375 12.816406 3.472656 13.640625 2.734375 C 14.472656 2.003906 14.929688 0.921875 15.015625 -0.515625 C 15.046875 -0.960938 15.0625 -1.695312 15.0625 -2.71875 L 15.0625 -3.171875 L 13.6875 -1.15625 C 12.601562 -0.3125 11.109375 0.109375 9.203125 0.109375 C 6.679688 0.109375 4.671875 -0.710938 3.171875 -2.359375 C 1.671875 -4.015625 0.921875 -6.179688 0.921875 -8.859375 C 0.921875 -11.992188 1.75 -14.398438 3.40625 -16.078125 C 5.0625 -17.753906 7.128906 -18.59375 9.609375 -18.59375 C 11.472656 -18.59375 12.890625 -18.253906 13.859375 -17.578125 L 15.0625 -15.703125 L 15.0625 -18.125 Z M 7.015625 -4.828125 C 7.835938 -3.742188 8.953125 -3.203125 10.359375 -3.203125 C 11.765625 -3.203125 12.898438 -3.679688 13.765625 -4.640625 C 14.628906 -5.609375 15.0625 -7.140625 15.0625 -9.234375 L 15.0625 -9.734375 C 15.0625 -11.617188 14.617188 -13.015625 13.734375 -13.921875 C 12.847656 -14.835938 11.78125 -15.296875 10.53125 -15.296875 C 9.09375 -15.296875 7.941406 -14.789062 7.078125 -13.78125 C 6.222656 -12.769531 5.796875 -11.265625 5.796875 -9.265625 C 5.796875 -7.398438 6.203125 -5.921875 7.015625 -4.828125 Z M 7.015625 -4.828125 "/></g></g></g></svg>