<svg xmlns="http://www.w3.org/2000/svg" xmlns:xlink="http://www.w3.org/1999/xlink" width="500" zoomAndPan="magnify" viewBox="0 0 375 374.999991" height="500" preserveAspectRatio="xMidYMid meet" version="1.0"><path fill="#f8eded" d="M 222.757812 370.640625 C 209.679688 370.488281 198.550781 370.039062 187.425781 368.382812 C 179.757812 367.179688 172.238281 365.375 164.71875 363.421875 C 154.34375 360.714844 143.820312 359.511719 133.144531 360.113281 C 131.941406 360.265625 130.589844 360.265625 129.386719 360.113281 C 125.925781 359.8125 124.421875 358.160156 124.273438 354.703125 C 124.121094 351.695312 124.574219 348.6875 125.023438 345.679688 C 126.527344 336.957031 128.785156 328.386719 131.039062 319.816406 C 132.695312 313.351562 134.347656 307.035156 135.25 300.421875 C 135.699219 297.863281 135.699219 297.863281 133.292969 296.960938 C 123.371094 292.601562 113.148438 288.691406 103.523438 283.730469 C 100.066406 281.925781 96.757812 279.820312 93.300781 277.867188 C 85.179688 273.054688 81.421875 265.839844 80.96875 256.664062 C 80.519531 248.695312 80.066406 240.726562 79.617188 232.910156 C 79.015625 223.585938 78.261719 214.265625 78.5625 204.792969 C 79.015625 184.492188 83.828125 165.398438 94.953125 148.253906 C 102.921875 136.078125 112.546875 125.550781 124.574219 117.28125 C 129.6875 113.824219 135.097656 111.417969 140.8125 109.3125 C 143.96875 108.109375 146.828125 108.261719 149.984375 109.3125 C 153.441406 110.515625 156.449219 112.46875 159.15625 114.726562 C 164.871094 119.386719 170.433594 124.046875 176.449219 128.257812 C 178.101562 129.460938 179.457031 130.210938 181.5625 129.160156 C 183.515625 128.257812 185.621094 128.707031 187.574219 128.859375 C 192.386719 129.609375 197.347656 130.363281 202.308594 129.761719 C 206.671875 129.308594 206.820312 129.007812 207.121094 124.800781 C 207.273438 123.296875 207.121094 121.792969 207.273438 120.289062 C 207.722656 117.582031 209.980469 115.777344 212.535156 116.230469 C 217.496094 116.980469 222.457031 117.28125 227.269531 118.933594 C 234.9375 121.640625 242.457031 124.800781 249.375 129.007812 C 255.238281 132.46875 259.75 137.28125 263.355469 143.144531 C 267.417969 150.058594 270.726562 157.277344 273.128906 164.796875 C 277.039062 176.976562 282.453125 188.550781 289.070312 199.527344 C 291.324219 203.4375 293.730469 207.347656 296.136719 211.257812 C 299.292969 216.519531 303.503906 220.878906 307.5625 225.390625 C 308.015625 225.992188 308.464844 226.144531 309.21875 226.144531 C 314.480469 226.292969 317.789062 229.300781 319.59375 233.960938 C 320.945312 237.269531 321.246094 240.878906 321.546875 244.488281 C 321.695312 248.246094 321.996094 252.003906 322.597656 255.613281 C 322.898438 257.417969 323.050781 259.371094 322.75 261.175781 C 322.296875 264.785156 322.449219 268.242188 322.75 271.851562 C 323.652344 283.28125 320.945312 293.957031 316.734375 304.480469 C 314.027344 310.945312 311.621094 317.710938 309.21875 324.328125 C 308.164062 327.183594 306.960938 330.042969 305.457031 332.597656 C 302.449219 337.410156 298.089844 339.964844 292.375 340.265625 C 287.867188 340.566406 283.503906 339.964844 279.144531 338.460938 C 274.183594 336.808594 271.027344 333.351562 269.824219 328.386719 C 268.769531 324.328125 268.167969 320.269531 267.566406 316.207031 C 266.816406 311.847656 266.0625 307.636719 265.460938 303.277344 C 265.011719 300.121094 262.605469 299.519531 260.199219 300.570312 C 258.847656 301.171875 257.644531 301.925781 256.890625 303.128906 C 253.28125 308.839844 249.523438 314.253906 248.320312 321.171875 C 247.570312 325.378906 247.117188 329.441406 246.667969 333.652344 C 246.214844 339.0625 245.765625 344.476562 245.164062 349.890625 C 244.863281 353.648438 245.3125 357.40625 245.765625 361.167969 C 246.367188 367.03125 244.863281 368.835938 238.847656 369.585938 C 232.832031 370.789062 226.820312 370.640625 222.757812 370.640625 Z M 222.757812 370.640625 " fill-opacity="1" fill-rule="nonzero"/><path fill="#004aad" d="M 253.734375 374.699219 C 249.824219 374.699219 246.066406 374.550781 242.15625 374.699219 C 235.089844 375 228.324219 373.648438 221.558594 371.84375 C 219 371.242188 216.59375 370.488281 214.039062 369.738281 C 212.835938 369.4375 212.234375 368.835938 211.785156 367.78125 C 210.582031 365.375 210.28125 362.820312 210.128906 360.265625 C 209.527344 348.234375 211.933594 336.65625 215.992188 325.382812 C 217.046875 322.675781 218.097656 319.816406 219.300781 317.261719 C 222.007812 311.847656 223.359375 306.132812 224.261719 300.121094 C 226.066406 288.992188 226.820312 277.714844 226.367188 266.441406 C 226.21875 262.980469 226.367188 259.523438 225.464844 256.066406 C 225.164062 255.011719 225.917969 253.960938 225.917969 252.90625 C 226.066406 248.847656 225.917969 244.9375 225.464844 240.878906 C 224.5625 232.910156 224.261719 225.089844 224.414062 217.121094 C 224.414062 210.054688 224.5625 202.988281 224.414062 195.921875 C 224.261719 192.011719 224.414062 188.101562 225.015625 184.191406 C 225.316406 181.484375 225.015625 178.777344 224.414062 176.222656 C 222.308594 167.503906 220.054688 158.78125 217.046875 150.210938 C 216.144531 147.65625 214.941406 145.097656 213.738281 142.542969 C 212.683594 140.285156 212.535156 138.03125 213.585938 135.777344 C 215.390625 132.167969 215.089844 128.558594 213.738281 124.949219 C 213.136719 123.296875 212.382812 121.640625 211.785156 119.988281 C 210.730469 117.132812 211.332031 116.230469 214.488281 116.230469 C 216.59375 116.230469 218.699219 116.679688 220.804688 117.132812 C 226.066406 118.484375 231.03125 120.738281 235.839844 123.445312 C 244.410156 128.257812 252.378906 133.820312 260.050781 139.835938 C 270.125 147.65625 277.339844 157.429688 282.300781 169.15625 C 285.460938 176.675781 288.316406 184.191406 290.875 192.011719 C 294.179688 201.632812 299.445312 210.054688 307.5625 216.371094 C 312.375 220.128906 312.523438 223.886719 308.917969 228.847656 C 305.007812 234.113281 299.445312 236.21875 293.128906 236.820312 C 292.226562 236.96875 291.171875 237.117188 290.273438 237.117188 C 288.316406 237.269531 286.964844 238.320312 285.910156 239.824219 C 284.707031 241.328125 283.503906 242.832031 282.902344 244.789062 C 282.453125 246.441406 281.398438 247.792969 280.648438 249.296875 C 279.144531 251.855469 277.941406 254.5625 276.136719 256.964844 C 271.925781 262.679688 270.726562 269.296875 270.125 276.0625 C 268.921875 287.339844 269.222656 298.765625 269.972656 310.042969 C 270.425781 317.5625 270.726562 325.082031 271.175781 332.449219 C 271.476562 338.3125 272.378906 344.027344 273.128906 349.738281 C 274.03125 356.503906 274.484375 363.421875 274.632812 370.339844 C 274.632812 370.941406 274.632812 371.542969 274.484375 372.144531 C 274.183594 373.949219 273.730469 374.398438 271.925781 374.398438 C 265.761719 374.699219 259.75 374.699219 253.734375 374.699219 Z M 253.734375 374.699219 " fill-opacity="1" fill-rule="nonzero"/><path fill="#004aad" d="M 172.539062 219.074219 C 168.929688 219.226562 165.019531 218.773438 161.113281 218.773438 C 159.609375 218.773438 158.253906 218.773438 157.203125 220.277344 C 156 221.933594 153.441406 222.082031 151.640625 220.730469 C 150.585938 219.976562 149.835938 219.074219 148.933594 218.171875 C 146.527344 215.917969 145.023438 215.769531 142.167969 217.121094 C 141.265625 217.570312 140.210938 218.171875 139.308594 218.625 C 134.796875 221.179688 129.988281 221.632812 125.023438 220.429688 C 119.3125 219.226562 113.898438 217.121094 108.335938 215.769531 C 106.832031 215.316406 105.328125 215.015625 103.972656 214.714844 C 99.011719 213.664062 94.953125 215.015625 91.496094 218.472656 C 85.328125 224.789062 80.96875 232.15625 80.066406 241.179688 C 79.617188 244.789062 80.519531 248.546875 81.269531 252.003906 C 81.871094 254.863281 82.773438 257.71875 83.527344 260.574219 C 84.277344 263.132812 84.878906 265.6875 85.179688 268.394531 C 85.328125 269.898438 85.929688 271.25 86.984375 272.152344 C 87.886719 272.90625 87.585938 273.507812 86.832031 274.109375 C 85.78125 274.859375 84.578125 275.011719 83.226562 275.011719 C 67.285156 274.710938 55.859375 263.433594 53.003906 251.101562 C 51.347656 243.886719 52.25 236.667969 53.90625 229.601562 C 57.363281 214.714844 62.625 200.429688 67.886719 185.996094 C 72.851562 172.613281 78.113281 159.53125 84.878906 147.054688 C 93.898438 130.210938 107.28125 117.28125 124.273438 108.410156 C 127.429688 106.757812 130.589844 105.703125 133.894531 104.5 C 136.601562 103.449219 139.460938 103.75 142.316406 103.296875 C 142.917969 103.148438 143.519531 103.75 143.96875 103.898438 C 150.738281 107.207031 156.902344 111.417969 163.515625 115.027344 C 165.171875 115.929688 166.824219 117.132812 168.179688 118.632812 C 168.78125 119.386719 169.832031 120.136719 169.984375 120.890625 C 170.433594 122.996094 172.089844 124.046875 173.589844 124.949219 C 178.253906 127.507812 181.261719 131.566406 183.816406 136.226562 C 189.679688 147.65625 192.835938 159.832031 194.792969 172.464844 C 195.84375 178.777344 196.445312 185.246094 196.746094 191.710938 C 197.046875 198.175781 196.445312 204.792969 194.640625 211.105469 C 194.191406 212.460938 193.738281 213.8125 192.988281 215.015625 C 191.636719 217.269531 189.679688 218.773438 186.972656 218.925781 C 185.320312 219.074219 183.816406 219.074219 182.164062 219.074219 C 179.15625 219.074219 175.996094 219.074219 172.539062 219.074219 Z M 172.539062 219.074219 " fill-opacity="1" fill-rule="nonzero"/><path fill="#004aad" d="M 153.140625 370.640625 C 146.976562 370.488281 140.664062 370.039062 134.347656 369.285156 C 129.535156 368.835938 124.574219 368.234375 119.761719 367.632812 C 111.945312 366.578125 104.273438 367.78125 96.757812 369.886719 C 95.855469 370.1875 94.953125 370.488281 93.898438 370.488281 C 91.34375 370.640625 90.140625 369.738281 89.691406 367.179688 C 88.9375 362.820312 88.9375 358.308594 89.390625 353.800781 C 89.992188 348.535156 91.496094 343.425781 93 338.460938 C 94.953125 331.996094 96.605469 325.382812 97.808594 318.765625 C 99.765625 307.9375 103.824219 297.863281 109.238281 288.390625 C 109.988281 287.1875 111.042969 285.988281 109.539062 284.632812 C 109.238281 284.332031 109.386719 283.882812 109.6875 283.582031 C 109.988281 283.28125 110.289062 283.28125 110.589844 283.429688 C 111.34375 283.730469 111.945312 284.183594 112.695312 284.632812 C 119.914062 289.292969 127.730469 291.699219 136.300781 292.453125 C 140.0625 292.753906 143.667969 293.355469 147.277344 294.40625 C 149.234375 295.007812 151.039062 295.609375 151.789062 297.714844 C 152.089844 298.464844 152.691406 298.617188 153.441406 298.765625 C 155.847656 299.21875 158.253906 299.519531 160.511719 299.96875 C 163.96875 300.570312 166.523438 299.519531 168.480469 296.511719 C 169.683594 294.558594 170.585938 292.601562 171.1875 290.496094 C 173.289062 284.183594 175.246094 277.867188 177.199219 271.703125 C 177.800781 269.746094 178.554688 267.792969 179.605469 265.988281 C 180.207031 264.9375 180.960938 264.183594 182.164062 263.734375 C 182.460938 263.582031 182.914062 263.582031 183.214844 263.734375 C 183.515625 264.035156 183.664062 264.335938 183.363281 264.636719 C 179.757812 271.703125 180.207031 279.519531 179.15625 287.039062 C 177.800781 295.910156 177.199219 304.933594 176.75 313.953125 C 176.296875 322.523438 175.996094 331.09375 175.546875 339.664062 C 175.09375 347.632812 174.042969 355.453125 172.6875 363.273438 C 171.9375 367.933594 169.832031 369.738281 164.871094 370.339844 C 161.113281 370.789062 157.203125 371.089844 153.140625 370.640625 Z M 153.140625 370.640625 " fill-opacity="1" fill-rule="nonzero"/><path fill="#ffffff" d="M 199.753906 272.753906 C 198.402344 273.65625 197.347656 274.558594 196.144531 275.011719 C 192.6875 276.511719 189.378906 275.914062 186.824219 273.207031 C 185.167969 271.402344 184.117188 269.296875 183.363281 266.890625 C 179.757812 255.613281 179.605469 244.335938 183.0625 232.910156 C 185.167969 225.84375 187.875 219.074219 191.636719 212.761719 C 192.835938 210.65625 194.039062 208.398438 195.09375 206.144531 C 195.542969 205.09375 195.542969 204.339844 194.640625 203.4375 C 191.636719 200.28125 189.378906 196.671875 187.273438 192.914062 C 186.824219 192.011719 186.222656 191.257812 185.769531 190.355469 C 183.214844 185.546875 178.855469 183.589844 173.589844 183.441406 C 169.832031 183.289062 166.074219 183.742188 162.464844 184.34375 C 160.511719 184.644531 158.554688 184.792969 156.601562 184.644531 C 153.59375 184.492188 151.488281 183.140625 150.285156 180.433594 C 149.835938 179.378906 149.234375 178.628906 148.179688 178.175781 C 145.324219 176.675781 144.421875 173.96875 145.472656 170.960938 C 146.074219 169.304688 147.128906 167.800781 148.332031 166.449219 C 152.542969 161.789062 156.449219 156.675781 160.210938 151.5625 C 164.417969 145.851562 169.683594 141.488281 175.546875 137.582031 C 184.265625 131.867188 192.835938 132.46875 201.558594 137.582031 C 206.371094 140.4375 209.828125 144.347656 211.785156 149.609375 C 213.585938 154.269531 215.691406 158.78125 218.25 163.140625 C 222.457031 170.507812 228.472656 175.621094 236.292969 178.929688 C 245.613281 182.6875 254.484375 187.351562 262.90625 192.460938 C 269.972656 196.824219 275.835938 202.535156 280.800781 209.152344 C 283.804688 213.210938 286.0625 217.722656 287.265625 222.535156 C 288.917969 228.847656 290.722656 235.164062 292.675781 241.328125 C 293.277344 243.132812 293.578125 244.9375 294.03125 246.742188 C 295.382812 253.808594 294.03125 260.273438 289.671875 265.988281 C 287.566406 268.695312 285.609375 271.402344 283.355469 273.957031 C 278.242188 279.671875 275.085938 286.585938 272.226562 293.65625 C 272.078125 293.957031 271.925781 294.257812 271.925781 294.707031 C 271.476562 302.074219 268.167969 308.089844 263.808594 313.804688 C 261.703125 316.507812 258.996094 318.613281 255.539062 319.515625 C 250.878906 320.871094 246.667969 319.816406 242.757812 317.261719 C 239.449219 315.007812 236.894531 312.148438 234.9375 308.539062 C 233.886719 306.585938 232.53125 305.382812 230.429688 304.78125 C 226.519531 303.429688 223.210938 301.324219 221.257812 297.414062 C 221.105469 296.960938 220.65625 296.511719 220.203125 296.210938 C 211.632812 289.894531 204.566406 282.226562 199.753906 272.753906 Z M 199.753906 272.753906 " fill-opacity="1" fill-rule="nonzero"/><path fill="#ffae91" d="M 148.933594 104.5 C 152.84375 100.589844 156 96.382812 158.855469 92.019531 C 159.15625 91.417969 159.457031 90.96875 159.910156 90.515625 C 162.617188 87.511719 162.914062 84.203125 161.863281 80.140625 C 160.210938 73.675781 161.5625 67.511719 165.171875 61.949219 C 165.921875 60.746094 166.675781 59.542969 168.179688 58.941406 C 168.628906 58.792969 169.082031 58.039062 169.382812 57.589844 C 171.789062 54.582031 173.890625 51.421875 175.546875 47.816406 C 176.148438 46.460938 176.75 45.257812 177.5 44.054688 C 177.953125 43.304688 178.253906 42.402344 179.457031 42.851562 C 180.207031 43.003906 180.808594 42.402344 181.410156 42.25 C 188.175781 39.246094 194.792969 35.9375 201.410156 32.476562 C 202.910156 31.726562 204.414062 30.972656 206.070312 30.371094 C 208.324219 29.472656 210.582031 29.769531 212.382812 31.273438 C 218.097656 36.386719 222.757812 42.402344 225.765625 49.316406 C 226.519531 50.972656 226.667969 52.925781 226.667969 54.882812 C 226.820312 64.203125 226.667969 73.675781 225.464844 83 C 224.414062 91.417969 221.40625 99.386719 217.496094 107.058594 C 216.59375 108.710938 215.390625 109.914062 214.1875 111.117188 C 213.585938 111.71875 212.835938 112.320312 212.234375 112.921875 C 210.730469 114.425781 210.128906 116.078125 211.03125 118.332031 C 211.933594 120.890625 212.382812 123.746094 212.382812 126.453125 C 212.382812 127.054688 212.382812 127.507812 212.382812 128.109375 C 212.085938 132.769531 211.183594 133.820312 206.671875 134.421875 C 203.8125 134.722656 200.808594 134.875 197.800781 135.023438 C 196.898438 135.023438 195.996094 134.875 195.242188 134.574219 C 192.535156 133.671875 189.980469 133.070312 187.125 133.070312 C 185.921875 133.070312 184.867188 132.617188 183.816406 132.015625 C 177.351562 128.707031 171.636719 124.5 166.375 119.6875 C 163.515625 117.132812 160.8125 114.425781 158.105469 111.71875 C 155.097656 109.160156 152.390625 106.605469 148.933594 104.5 Z M 148.933594 104.5 " fill-opacity="1" fill-rule="nonzero"/><path fill="#ffae91" d="M 179.15625 266.140625 C 178.855469 264.484375 179.003906 263.28125 179.15625 262.078125 C 179.605469 258.921875 179.757812 255.765625 179.605469 252.457031 C 179.15625 244.636719 179.757812 236.96875 182.164062 229.449219 C 182.613281 228.246094 183.0625 226.894531 183.664062 225.691406 C 184.71875 223.136719 186.371094 221.632812 189.230469 220.730469 C 196.746094 218.023438 204.113281 214.867188 211.484375 211.558594 C 217.796875 208.699219 222.910156 204.339844 226.820312 198.625 C 228.625 196.070312 230.128906 193.363281 231.929688 190.808594 C 234.335938 186.898438 237.042969 183.289062 240.351562 179.980469 C 241.703125 178.777344 242.90625 177.574219 244.710938 176.824219 C 247.417969 175.773438 249.375 177.125 249.222656 179.980469 C 249.222656 181.785156 248.320312 183.441406 247.570312 184.945312 C 246.816406 186.296875 245.914062 187.648438 245.164062 189.152344 C 244.5625 190.355469 244.863281 190.957031 246.066406 191.410156 C 247.417969 191.859375 248.773438 192.011719 250.277344 192.011719 C 253.28125 192.011719 256.140625 192.011719 259.148438 192.011719 C 262.90625 192.011719 266.515625 193.0625 269.972656 194.71875 C 272.226562 195.769531 272.828125 196.824219 272.527344 199.378906 C 272.378906 200.429688 272.378906 201.183594 273.730469 201.632812 C 278.09375 203.4375 279.144531 206.445312 276.890625 210.503906 C 276.738281 210.65625 276.738281 210.804688 276.738281 210.957031 C 277.339844 211.707031 278.394531 212.007812 279.296875 212.460938 C 283.65625 215.015625 283.957031 218.925781 280.046875 222.234375 C 280.347656 223.285156 281.398438 223.136719 282.152344 223.738281 C 284.105469 225.242188 284.257812 227.042969 282.453125 228.699219 C 281.550781 229.449219 280.648438 230.203125 279.445312 230.351562 C 277.191406 230.652344 275.085938 231.105469 272.828125 231.105469 C 266.964844 231.253906 261.101562 232.007812 255.238281 232.910156 C 252.230469 233.359375 249.375 232.910156 246.515625 232.457031 C 243.660156 232.007812 240.804688 230.953125 237.945312 230.503906 C 236.140625 230.203125 234.488281 230.503906 232.984375 231.253906 C 231.03125 232.308594 229.226562 233.210938 227.421875 234.414062 C 214.1875 242.984375 201.109375 251.554688 187.875 260.125 C 184.71875 261.777344 182.011719 263.582031 179.15625 266.140625 Z M 179.15625 266.140625 " fill-opacity="1" fill-rule="nonzero"/><path fill="#ffae91" d="M 203.8125 283.582031 C 202.011719 283.128906 200.355469 282.980469 198.851562 282.527344 C 196.898438 281.925781 194.941406 281.023438 193.738281 279.371094 C 191.785156 276.664062 192.835938 274.558594 196.144531 273.65625 C 199.453125 272.90625 202.761719 273.507812 205.917969 273.808594 C 210.730469 274.410156 215.691406 275.160156 220.503906 275.613281 C 223.511719 275.914062 226.519531 275.914062 229.527344 275.3125 C 229.976562 275.160156 230.578125 275.011719 230.730469 274.410156 C 230.730469 273.957031 230.277344 273.65625 229.828125 273.507812 C 228.925781 273.054688 228.171875 272.605469 227.269531 272.152344 C 222.457031 269.746094 217.796875 267.191406 213.4375 263.882812 C 211.332031 262.378906 209.378906 260.574219 207.875 258.46875 C 207.421875 257.867188 207.121094 257.265625 206.820312 256.664062 C 205.617188 254.109375 206.671875 252.457031 209.527344 252.457031 C 214.039062 252.304688 218.25 253.808594 222.457031 255.613281 C 226.21875 257.265625 229.675781 259.523438 233.132812 261.777344 C 235.839844 263.582031 238.398438 265.386719 241.707031 265.988281 C 246.816406 266.890625 251.628906 265.839844 256.289062 263.582031 C 257.792969 262.832031 257.792969 262.378906 256.742188 261.175781 C 254.785156 259.070312 252.679688 257.117188 250.726562 255.164062 C 248.773438 253.207031 246.816406 251.253906 245.3125 248.847656 C 243.960938 246.890625 243.058594 244.789062 243.207031 242.382812 C 243.207031 238.921875 245.3125 237.71875 248.320312 239.222656 C 248.773438 239.375 249.074219 239.675781 249.523438 239.976562 C 254.785156 243.886719 260.050781 247.644531 264.710938 252.304688 C 268.019531 255.613281 270.574219 259.523438 271.777344 264.035156 C 272.679688 267.492188 274.933594 270.199219 277.339844 272.753906 C 277.941406 273.507812 278.695312 273.957031 279.746094 273.507812 C 279.898438 273.507812 280.046875 273.507812 280.347656 273.507812 C 284.859375 272.605469 287.867188 274.710938 290.421875 278.167969 C 292.375 280.875 294.179688 283.582031 295.082031 286.886719 C 295.382812 288.089844 295.234375 288.992188 294.179688 289.746094 C 289.21875 293.65625 284.257812 297.5625 278.394531 300.121094 C 274.03125 301.925781 269.371094 302.527344 264.859375 302.675781 C 252.832031 303.128906 240.804688 302.675781 228.773438 300.722656 C 225.316406 300.121094 221.859375 299.96875 218.398438 299.519531 C 215.242188 299.066406 212.535156 297.863281 210.429688 295.460938 C 209.980469 295.007812 209.226562 294.257812 209.378906 293.65625 C 209.980469 292 208.925781 291.699219 207.875 291.097656 C 206.21875 290.195312 204.714844 288.992188 203.664062 287.488281 C 202.308594 285.6875 202.308594 285.535156 203.8125 283.582031 Z M 203.8125 283.582031 " fill-opacity="1" fill-rule="nonzero"/><path fill="#191919" d="M 220.203125 104.199219 C 219 104.5 219 105.554688 218.398438 106.304688 C 215.992188 109.613281 213.886719 113.070312 210.429688 115.628906 C 205.167969 119.386719 199.605469 120.4375 193.738281 117.882812 C 183.214844 113.222656 174.792969 106.304688 169.683594 95.628906 C 169.230469 94.726562 168.929688 93.675781 168.027344 92.921875 C 167.425781 93.523438 167.578125 94.125 167.578125 94.726562 C 167.578125 100.589844 167.726562 106.457031 169.082031 112.320312 C 169.832031 115.777344 171.1875 119.085938 173.441406 121.941406 C 174.945312 123.898438 176.148438 126.152344 176.296875 128.707031 C 176.449219 131.414062 175.847656 133.820312 173.441406 135.476562 C 172.6875 135.925781 172.238281 136.527344 171.789062 137.128906 C 168.929688 141.488281 164.269531 142.84375 159.457031 140.585938 C 159.15625 140.4375 158.855469 140.285156 158.554688 140.136719 C 156.902344 139.535156 156 137.128906 154.34375 137.28125 C 152.691406 137.429688 151.039062 138.332031 148.933594 138.480469 C 149.234375 140.585938 150.585938 142.242188 150.738281 144.347656 C 149.984375 142.84375 149.234375 141.339844 148.480469 139.835938 C 148.03125 138.78125 147.277344 138.332031 146.226562 137.882812 C 140.8125 135.777344 137.355469 132.015625 137.203125 125.851562 C 137.203125 124.800781 136.753906 124.5 135.851562 124.199219 C 133.894531 123.445312 132.542969 122.242188 131.339844 120.4375 C 130.738281 119.535156 130.289062 118.785156 130.136719 117.734375 C 129.835938 114.125 129.835938 110.664062 131.640625 107.359375 C 133.445312 104.199219 135.097656 100.742188 136.753906 97.285156 C 137.957031 94.726562 138.40625 91.871094 138.558594 89.011719 C 138.859375 85.554688 139.761719 82.398438 140.964844 79.238281 C 142.316406 75.933594 143.070312 72.625 143.070312 69.164062 C 143.070312 63 144.570312 57.136719 147.578125 51.722656 C 149.082031 49.167969 149.835938 46.3125 150.4375 43.453125 C 152.691406 32.628906 157.804688 23.15625 164.570312 14.734375 C 169.984375 8.121094 176.898438 3.609375 185.320312 1.652344 C 191.9375 0 197.949219 1.351562 203.0625 5.714844 C 203.664062 6.164062 203.964844 6.464844 204.867188 6.164062 C 211.484375 3.609375 217.496094 5.5625 223.058594 9.324219 C 224.863281 10.523438 226.367188 12.328125 227.570312 14.285156 C 228.023438 15.035156 228.625 15.789062 229.074219 16.539062 C 232.984375 21.800781 235.691406 27.515625 236.292969 34.132812 C 236.742188 39.394531 238.097656 44.355469 239.300781 49.316406 C 241.253906 56.535156 242.003906 63.902344 240.804688 71.269531 C 240.203125 74.730469 240.503906 78.1875 241.105469 81.644531 C 242.457031 89.613281 243.660156 97.734375 243.960938 105.855469 C 244.109375 109.761719 244.261719 113.523438 243.808594 117.28125 C 243.507812 119.6875 243.507812 122.242188 244.109375 124.648438 C 244.710938 127.65625 243.660156 130.210938 241.253906 131.867188 C 239.148438 133.371094 236.894531 133.519531 234.789062 131.867188 C 234.035156 131.265625 233.433594 131.113281 232.683594 131.566406 C 228.472656 133.519531 224.863281 132.617188 221.558594 128.707031 C 221.105469 133.070312 221.105469 137.128906 217.949219 140.285156 C 217.347656 139.683594 217.949219 139.234375 218.25 138.933594 C 220.203125 135.925781 220.65625 132.46875 220.804688 129.007812 C 220.957031 126.90625 220.804688 126.90625 218.699219 127.054688 C 217.195312 127.207031 215.84375 127.054688 214.488281 126.453125 C 210.730469 124.949219 209.378906 120.738281 211.632812 117.433594 C 213.4375 114.574219 215.542969 112.019531 217.496094 109.160156 C 218.550781 107.660156 219.753906 106.15625 220.203125 104.199219 C 221.105469 103.449219 221.40625 102.546875 221.859375 100.890625 C 220.65625 102.695312 220.65625 102.695312 220.203125 104.199219 Z M 207.574219 35.484375 C 206.070312 36.988281 204.867188 38.191406 203.511719 39.394531 C 199.605469 42.703125 195.09375 44.808594 190.433594 46.460938 C 186.070312 47.964844 182.3125 50.371094 179.15625 53.828125 C 176.449219 56.6875 174.34375 59.992188 172.539062 63.601562 C 171.335938 65.859375 171.1875 68.414062 171.636719 70.96875 C 172.539062 76.234375 173.890625 81.34375 176.148438 86.308594 C 177.351562 89.011719 178.855469 91.71875 180.808594 94.125 C 182.3125 95.78125 182.3125 95.78125 184.117188 94.425781 C 185.46875 93.375 186.972656 92.621094 188.628906 92.320312 C 191.183594 91.71875 193.738281 91.570312 196.296875 91.871094 C 199.605469 92.171875 203.0625 92.019531 206.371094 92.320312 C 209.527344 92.621094 212.683594 92.921875 215.691406 94.425781 C 216.445312 94.878906 217.195312 94.878906 217.949219 94.425781 C 220.054688 92.921875 221.859375 91.117188 222.609375 88.5625 C 224.5625 81.945312 225.015625 75.332031 224.414062 68.414062 C 224.261719 66.007812 224.261719 66.007812 222.007812 66.308594 C 219.453125 66.609375 216.894531 67.210938 214.488281 68.113281 C 213.738281 68.414062 212.835938 68.714844 212.382812 67.8125 C 211.933594 66.761719 212.835938 66.308594 213.585938 65.859375 C 214.488281 65.257812 215.542969 65.105469 216.59375 64.957031 C 217.648438 64.804688 218.699219 64.804688 219.753906 64.503906 C 221.105469 64.355469 222.910156 65.105469 223.8125 64.054688 C 224.714844 63 223.960938 61.347656 224.113281 59.84375 C 224.261719 57.890625 223.660156 56.6875 222.007812 55.484375 C 215.542969 50.820312 210.28125 45.109375 207.875 37.140625 C 208.023438 36.386719 207.722656 36.085938 207.574219 35.484375 Z M 194.941406 95.179688 C 192.386719 94.425781 190.433594 96.53125 188.777344 98.785156 C 186.371094 102.246094 186.972656 105.101562 190.582031 107.359375 C 193.4375 109.160156 196.597656 110.0625 199.90625 110.363281 C 203.964844 110.664062 207.875 110.0625 211.484375 107.960938 C 213.886719 106.605469 215.390625 104.5 215.691406 101.792969 C 215.992188 99.085938 214.789062 97.734375 212.835938 97.433594 C 207.273438 96.53125 201.558594 95.480469 194.941406 95.179688 Z M 194.941406 95.179688 " fill-opacity="1" fill-rule="nonzero"/><path fill="#191919" d="M 207.875 316.359375 C 198.402344 316.207031 189.078125 315.609375 179.605469 314.105469 C 176.449219 313.652344 175.847656 312.902344 176.449219 309.742188 C 176.75 307.9375 176.75 305.832031 177.800781 304.78125 C 178.855469 303.730469 180.960938 304.632812 182.613281 304.632812 C 192.835938 305.382812 202.910156 304.933594 213.136719 304.480469 C 215.84375 304.332031 218.699219 304.03125 221.40625 303.878906 C 223.210938 303.730469 223.210938 304.03125 223.058594 305.832031 C 222.910156 308.992188 221.859375 311.847656 220.355469 314.707031 C 219.753906 315.90625 219 316.507812 217.496094 316.507812 C 214.1875 316.207031 211.03125 316.359375 207.875 316.359375 Z M 207.875 316.359375 " fill-opacity="1" fill-rule="nonzero"/><path fill="#191919" d="M 272.980469 312.902344 C 273.730469 312.902344 273.730469 313.503906 273.882812 313.953125 C 274.785156 317.863281 275.6875 321.773438 277.492188 325.382812 C 278.84375 328.238281 280.347656 330.792969 282.902344 332.597656 C 286.964844 335.753906 291.171875 335.453125 294.632812 331.695312 C 298.390625 327.636719 299.746094 322.675781 300.195312 317.261719 C 300.648438 312.75 300.195312 308.390625 299.144531 304.03125 C 297.789062 297.714844 296.285156 291.398438 294.332031 285.085938 C 292.675781 279.972656 289.972656 275.761719 285.007812 273.355469 C 284.40625 273.054688 283.65625 272.753906 283.503906 272.003906 C 284.105469 271.402344 284.707031 271.851562 285.160156 272.152344 C 289.371094 273.808594 292.226562 276.8125 294.03125 280.875 C 296.4375 286.4375 297.789062 292.453125 299.144531 298.316406 C 300.496094 303.730469 301.699219 309.292969 301.546875 315.007812 C 301.398438 319.816406 300.496094 324.480469 298.089844 328.839844 C 297.1875 330.492188 295.984375 331.996094 294.632812 333.199219 C 291.324219 336.207031 287.113281 336.507812 283.203125 334.101562 C 280.648438 332.449219 278.84375 330.191406 277.492188 327.484375 C 275.234375 323.277344 274.183594 318.613281 273.429688 313.953125 C 273.28125 313.804688 273.128906 313.351562 272.980469 312.902344 Z M 272.980469 312.902344 " fill-opacity="1" fill-rule="nonzero"/><path fill="#191919" d="M 137.65625 337.859375 C 137.503906 337.257812 137.804688 336.808594 137.957031 336.355469 C 141.265625 328.988281 144.421875 321.621094 148.332031 314.554688 C 149.234375 312.902344 150.136719 311.246094 151.488281 309.894531 C 151.941406 309.441406 152.390625 308.992188 153.140625 309.292969 C 153.894531 309.59375 153.742188 310.34375 153.742188 310.945312 C 153.441406 314.253906 152.390625 317.261719 151.339844 320.269531 C 147.730469 330.492188 143.066406 340.265625 138.859375 350.191406 C 137.054688 354.402344 135.25 358.761719 133.746094 363.121094 C 133.445312 363.875 133.445312 364.777344 132.542969 365.375 C 132.695312 363.875 133.144531 362.519531 133.59375 361.316406 C 136.753906 351.84375 141.113281 342.972656 145.023438 333.953125 C 147.878906 327.335938 150.738281 320.871094 152.542969 313.953125 C 152.84375 312.902344 152.992188 311.847656 152.992188 310.644531 C 151.640625 310.796875 151.339844 311.847656 150.886719 312.601562 C 148.933594 315.609375 147.277344 318.914062 145.625 322.222656 C 143.519531 326.734375 141.414062 331.246094 139.308594 335.753906 C 138.707031 336.207031 138.558594 337.257812 137.65625 337.859375 Z M 137.65625 337.859375 " fill-opacity="1" fill-rule="nonzero"/><path fill="#191919" d="M 201.257812 179.230469 C 204.414062 182.839844 208.023438 185.695312 212.234375 188.101562 C 214.488281 189.304688 216.746094 190.207031 219.152344 190.957031 C 221.257812 191.558594 223.511719 191.710938 225.617188 190.65625 C 227.121094 189.90625 227.269531 189.304688 226.519531 187.800781 C 225.917969 186.449219 225.015625 185.09375 223.960938 184.042969 C 220.804688 180.882812 218.851562 177.277344 217.648438 173.066406 C 216.746094 169.757812 214.789062 167.203125 211.933594 165.246094 C 209.226562 163.441406 206.671875 161.636719 203.964844 159.832031 C 203.363281 159.382812 202.609375 159.082031 202.160156 158.328125 C 202.609375 157.878906 203.0625 158.179688 203.363281 158.328125 C 206.820312 160.285156 210.128906 162.390625 213.136719 164.796875 C 215.84375 166.902344 217.796875 169.605469 218.550781 172.765625 C 219.601562 176.824219 221.558594 180.132812 224.414062 183.140625 C 225.617188 184.34375 226.820312 185.847656 227.421875 187.5 C 228.171875 189.453125 227.871094 190.507812 226.066406 191.558594 C 224.414062 192.460938 222.609375 192.914062 220.65625 192.460938 C 212.835938 190.355469 206.070312 186.449219 201.257812 179.230469 Z M 201.257812 179.230469 " fill-opacity="1" fill-rule="nonzero"/><path fill="#191919" d="M 154.195312 364.175781 C 155.699219 363.722656 157.203125 363.121094 158.707031 362.671875 C 161.863281 361.617188 163.667969 359.511719 164.117188 356.355469 C 164.570312 353.046875 165.019531 349.589844 165.472656 346.28125 C 166.523438 336.507812 168.179688 326.882812 169.53125 317.109375 C 170.132812 313.050781 170.886719 308.839844 171.1875 304.332031 C 171.789062 307.9375 171.1875 311.097656 170.734375 314.105469 C 169.683594 322.523438 168.480469 330.945312 167.425781 339.363281 C 166.675781 344.628906 166.074219 350.039062 165.621094 355.304688 C 165.171875 359.964844 162.765625 362.972656 158.253906 364.023438 C 156.902344 364.175781 155.699219 364.777344 154.195312 364.175781 Z M 154.195312 364.175781 " fill-opacity="1" fill-rule="nonzero"/><path fill="#191919" d="M 110.742188 210.355469 C 108.9375 209.902344 107.28125 209.453125 105.476562 209.152344 C 91.042969 205.996094 77.058594 215.167969 73.300781 229.449219 C 70.59375 239.222656 71.496094 248.847656 74.050781 258.46875 C 74.503906 260.125 75.105469 261.628906 75.554688 263.433594 C 74.503906 262.832031 74.503906 261.929688 74.203125 261.175781 C 70.894531 251.554688 69.542969 241.78125 71.796875 231.707031 C 74.652344 219.375 82.023438 211.257812 94.5 208.398438 C 99.914062 207.195312 105.175781 208.25 110.289062 209.753906 C 110.589844 209.902344 110.742188 210.203125 110.742188 210.355469 C 110.742188 210.503906 110.742188 210.355469 110.742188 210.355469 Z M 110.742188 210.355469 " fill-opacity="1" fill-rule="nonzero"/><path fill="#191919" d="M 195.84375 159.832031 C 195.695312 165.699219 198.851562 169.457031 203.363281 172.464844 C 206.820312 174.71875 210.28125 176.824219 213.886719 178.777344 C 215.992188 179.980469 218.097656 181.335938 219.453125 183.589844 C 219.902344 184.34375 220.957031 185.246094 220.054688 186.148438 C 219.300781 187.050781 218.398438 186.148438 217.648438 185.695312 C 214.941406 184.34375 212.085938 182.839844 209.378906 181.335938 C 205.769531 179.230469 202.609375 176.675781 201.257812 172.613281 C 200.957031 171.710938 200.054688 171.261719 199.453125 170.660156 C 196.445312 167.800781 194.941406 164.34375 195.84375 159.832031 Z M 218.398438 184.792969 C 216.894531 181.9375 207.875 175.921875 203.363281 174.417969 C 206.820312 180.433594 213.136719 181.9375 218.398438 184.792969 Z M 218.398438 184.792969 " fill-opacity="1" fill-rule="nonzero"/><path fill="#191919" d="M 108.785156 339.964844 C 108.785156 339.515625 108.785156 339.0625 109.085938 338.613281 C 113.898438 327.035156 118.859375 315.457031 125.625 304.78125 C 127.582031 301.625 129.6875 298.765625 131.941406 295.910156 C 132.394531 295.460938 132.695312 294.707031 133.445312 294.707031 C 133.746094 295.308594 133.292969 295.761719 132.996094 296.210938 C 123.519531 309.140625 116.605469 323.578125 109.988281 338.160156 C 109.539062 338.613281 109.386719 339.515625 108.785156 339.964844 Z M 108.785156 339.964844 " fill-opacity="1" fill-rule="nonzero"/><path fill="#191919" d="M 174.34375 231.855469 C 174.644531 234.714844 173.890625 237.417969 173.441406 240.277344 C 172.089844 249.449219 170.734375 258.621094 169.382812 267.792969 C 168.328125 274.109375 166.976562 280.421875 164.71875 286.4375 C 164.570312 287.039062 164.417969 287.640625 163.816406 288.089844 C 163.367188 287.789062 163.515625 287.339844 163.667969 286.886719 C 166.976562 277.265625 168.480469 267.191406 169.984375 257.117188 C 171.1875 249.449219 172.539062 241.78125 173.742188 234.261719 C 173.890625 233.359375 174.042969 232.609375 174.34375 231.855469 Z M 174.34375 231.855469 " fill-opacity="1" fill-rule="nonzero"/><path fill="#191919" d="M 154.644531 209.902344 C 151.941406 191.710938 144.570312 175.472656 134.648438 160.285156 C 143.820312 169.304688 154.195312 194.71875 154.644531 209.902344 Z M 154.644531 209.902344 " fill-opacity="1" fill-rule="nonzero"/><path fill="#191919" d="M 240.804688 326.582031 C 237.644531 335.304688 237.042969 344.476562 235.992188 353.5 C 235.390625 353.046875 235.691406 352.445312 235.691406 351.996094 C 235.691406 351.394531 235.691406 350.941406 235.691406 350.339844 C 236.292969 342.972656 237.042969 335.605469 239 328.386719 C 239.300781 327.484375 239.601562 326.734375 239.902344 325.832031 C 240.050781 325.382812 240.503906 324.78125 241.105469 324.929688 C 241.707031 325.082031 242.003906 325.53125 242.003906 326.132812 C 242.304688 328.539062 242.605469 330.945312 242.457031 333.351562 C 242.003906 341.320312 240.804688 349.136719 240.652344 357.105469 C 240.652344 359.664062 240.953125 362.070312 241.253906 364.476562 C 240.203125 362.820312 239.902344 360.867188 239.902344 358.910156 C 239.75 353.5 240.351562 348.234375 240.804688 342.972656 C 241.105469 338.761719 241.707031 334.703125 241.554688 330.492188 C 241.703125 329.140625 241.855469 327.785156 240.804688 326.582031 Z M 240.804688 326.582031 " fill-opacity="1" fill-rule="nonzero"/><path fill="#191919" d="M 110.890625 268.695312 C 111.945312 268.84375 112.246094 269.746094 112.847656 270.347656 C 116.003906 273.957031 119.160156 277.265625 123.070312 280.121094 C 124.121094 280.875 125.175781 281.625 126.226562 281.925781 C 127.730469 282.527344 128.484375 282.078125 128.484375 280.421875 C 128.484375 279.671875 128.484375 278.769531 128.484375 278.015625 C 128.484375 277.414062 128.183594 276.511719 129.085938 276.214844 C 129.835938 275.914062 130.4375 276.511719 130.890625 276.964844 C 131.792969 277.714844 132.695312 278.617188 133.746094 279.371094 C 134.648438 280.121094 135.550781 280.875 136.453125 281.476562 C 138.707031 283.128906 141.113281 283.28125 143.367188 281.476562 C 143.820312 281.175781 144.269531 280.875 144.722656 280.574219 C 143.667969 282.980469 141.113281 284.183594 138.558594 283.582031 C 136.902344 283.128906 135.550781 282.078125 134.195312 281.023438 C 132.695312 279.820312 131.339844 278.46875 129.6875 276.964844 C 129.234375 278.015625 129.535156 278.917969 129.535156 279.671875 C 129.6875 283.128906 128.03125 284.183594 124.875 282.527344 C 123.972656 282.078125 123.222656 281.476562 122.46875 281.023438 C 118.109375 277.714844 114.5 273.65625 111.191406 269.296875 C 111.042969 269.296875 110.742188 268.996094 110.890625 268.695312 Z M 110.890625 268.695312 " fill-opacity="1" fill-rule="nonzero"/><path fill="#191919" d="M 251.929688 369.886719 C 253.132812 368.835938 254.335938 368.683594 255.386719 368.234375 C 257.644531 367.179688 259.296875 365.375 260.050781 362.972656 C 261.253906 359.210938 261.253906 355.453125 261.402344 351.542969 C 261.851562 340.71875 262.304688 330.042969 262.753906 319.214844 C 262.753906 318.914062 262.753906 318.765625 262.90625 318.464844 C 263.207031 325.082031 263.054688 331.847656 262.753906 338.460938 C 262.605469 342.371094 262.605469 346.28125 262.453125 350.191406 C 262.304688 354.25 262.304688 358.460938 261.253906 362.371094 C 260.050781 367.03125 257.191406 369.285156 251.929688 369.886719 Z M 251.929688 369.886719 " fill-opacity="1" fill-rule="nonzero"/><path fill="#191919" d="M 117.355469 224.789062 C 119.761719 225.992188 121.117188 227.945312 122.46875 229.902344 C 126.226562 234.863281 129.234375 240.277344 132.242188 245.539062 C 133.144531 247.191406 134.046875 248.847656 135.398438 250.5 C 136.152344 248.996094 135.851562 247.792969 135.699219 246.589844 C 135.398438 244.488281 135.398438 242.53125 135.398438 240.425781 C 135.398438 239.976562 135.398438 239.375 135.550781 238.921875 C 135.699219 238.621094 136 238.320312 136.453125 238.472656 C 136.753906 238.621094 137.054688 238.773438 137.203125 239.074219 C 137.355469 239.523438 137.203125 239.523438 136.753906 239.675781 C 135.851562 239.976562 136.152344 240.878906 136.300781 241.480469 C 136.453125 243.585938 136.601562 245.539062 136.753906 247.644531 C 136.902344 248.996094 137.503906 250.953125 136 251.554688 C 134.195312 252.304688 133.59375 250.050781 132.84375 248.847656 C 130.890625 245.539062 128.933594 242.230469 127.128906 238.921875 C 124.421875 233.8125 121.265625 229 117.355469 224.789062 Z M 117.355469 224.789062 " fill-opacity="1" fill-rule="nonzero"/><path fill="#191919" d="M 130.738281 169.457031 C 131.492188 169.605469 131.792969 170.207031 132.09375 170.660156 C 141.867188 182.386719 148.78125 195.621094 152.542969 210.503906 C 152.691406 210.957031 152.84375 211.558594 152.84375 212.007812 C 152.84375 212.007812 152.691406 212.160156 152.691406 212.160156 C 152.242188 212.160156 152.089844 211.859375 152.089844 211.558594 C 147.878906 196.371094 140.964844 182.6875 131.039062 170.507812 C 130.890625 170.207031 130.738281 169.90625 130.738281 169.457031 Z M 130.738281 169.457031 " fill-opacity="1" fill-rule="nonzero"/><path fill="#191919" d="M 117.507812 224.789062 C 114.949219 224.039062 114.5 224.339844 114.5 226.746094 C 114.5 228.546875 115.101562 230.203125 115.550781 232.007812 C 117.207031 237.71875 119.011719 243.433594 120.664062 249.148438 C 121.117188 250.5 121.417969 251.703125 121.417969 253.058594 C 121.417969 253.359375 121.417969 253.808594 121.117188 253.960938 C 120.664062 254.261719 120.214844 253.960938 119.914062 253.507812 C 119.460938 253.058594 119.160156 252.457031 118.859375 252.003906 C 116.304688 247.042969 113.746094 242.082031 111.042969 236.96875 C 110.890625 236.667969 110.742188 236.519531 111.191406 236.066406 C 114.046875 241.328125 116.90625 246.742188 119.914062 252.304688 C 120.515625 251.253906 120.214844 250.800781 120.0625 250.199219 C 118.558594 243.734375 116.304688 237.570312 114.5 231.253906 C 114.046875 229.601562 113.746094 227.796875 113.597656 225.992188 C 113.597656 225.089844 113.148438 224.039062 114.199219 223.585938 C 115.550781 223.285156 116.605469 223.585938 117.507812 224.789062 Z M 117.507812 224.789062 " fill-opacity="1" fill-rule="nonzero"/><path fill="#191919" d="M 186.371094 321.019531 C 184.417969 335.304688 182.464844 349.589844 180.507812 363.875 C 179.605469 360.414062 183.0625 334.554688 186.371094 321.019531 Z M 186.371094 321.019531 " fill-opacity="1" fill-rule="nonzero"/><path fill="#191919" d="M 191.183594 362.21875 C 190.582031 358.761719 194.191406 324.78125 195.695312 321.019531 C 195.542969 327.335938 192.085938 360.265625 191.183594 362.21875 Z M 191.183594 362.21875 " fill-opacity="1" fill-rule="nonzero"/><path fill="#191919" d="M 236.894531 144.796875 C 241.703125 151.863281 244.410156 159.683594 246.066406 167.953125 C 245.914062 163.441406 245.3125 159.082031 245.011719 154.722656 C 246.066406 159.082031 247.117188 163.59375 246.96875 168.101562 C 246.96875 168.554688 246.96875 169.003906 246.816406 169.457031 C 246.816406 169.605469 246.515625 169.90625 246.214844 169.90625 C 246.066406 169.90625 245.613281 169.757812 245.613281 169.605469 C 245.3125 169.003906 245.011719 168.402344 245.011719 167.800781 C 243.660156 159.832031 240.953125 152.464844 237.042969 145.550781 C 237.042969 145.25 237.042969 145.097656 236.894531 144.796875 Z M 236.894531 144.796875 " fill-opacity="1" fill-rule="nonzero"/><path fill="#191919" d="M 120.816406 348.386719 C 125.777344 337.859375 131.792969 327.9375 138.257812 317.5625 C 137.957031 319.96875 126.980469 339.214844 120.816406 348.386719 Z M 120.816406 348.386719 " fill-opacity="1" fill-rule="nonzero"/><path fill="#191919" d="M 221.859375 327.636719 C 221.558594 330.34375 220.503906 332.75 219.753906 335.304688 C 218.25 341.621094 217.195312 348.085938 217.949219 354.703125 C 218.097656 356.203125 218.851562 357.859375 218.398438 359.8125 C 217.046875 356.957031 216.746094 354.25 216.746094 351.542969 C 216.445312 344.777344 217.949219 338.3125 220.054688 331.847656 C 220.503906 330.492188 220.503906 328.839844 221.859375 327.636719 Z M 221.859375 327.636719 " fill-opacity="1" fill-rule="nonzero"/><path fill="#191919" d="M 282 245.238281 C 281.550781 245.390625 281.398438 245.390625 281.398438 245.390625 C 277.339844 242.53125 272.980469 242.683594 268.46875 244.1875 C 266.363281 244.9375 264.109375 245.238281 261.851562 245.089844 C 261.402344 245.089844 260.953125 245.089844 260.199219 244.335938 C 262.003906 244.636719 263.207031 244.335938 264.558594 244.1875 C 265.613281 244.035156 266.515625 243.585938 267.417969 242.832031 C 269.523438 240.726562 272.226562 239.523438 274.933594 238.472656 C 273.582031 239.976562 271.476562 240.726562 269.523438 242.683594 C 274.332031 241.480469 278.542969 241.480469 282 245.238281 Z M 282 245.238281 " fill-opacity="1" fill-rule="nonzero"/><path fill="#191919" d="M 302 267.191406 C 303.503906 270.199219 305.15625 273.054688 306.660156 275.914062 C 307.414062 277.265625 308.164062 278.617188 308.917969 279.820312 C 309.367188 280.421875 309.820312 281.476562 310.722656 281.175781 C 311.621094 280.875 311.320312 279.820312 311.320312 279.070312 C 311.320312 277.414062 310.722656 275.761719 310.269531 274.109375 C 309.519531 271.402344 308.765625 268.84375 308.015625 266.140625 C 307.714844 265.238281 307.5625 264.183594 307.863281 263.28125 C 309.21875 268.542969 311.472656 273.507812 312.375 279.070312 C 312.375 279.371094 312.523438 279.820312 312.375 280.121094 C 312.074219 280.875 312.222656 282.078125 311.171875 282.378906 C 310.121094 282.679688 309.519531 281.925781 308.917969 281.324219 C 308.316406 280.421875 307.5625 279.371094 307.113281 278.46875 C 305.457031 275.460938 303.953125 272.304688 302.449219 269.144531 C 302 268.394531 301.546875 267.941406 302 267.191406 Z M 302 267.191406 " fill-opacity="1" fill-rule="nonzero"/><path fill="#191919" d="M 171.636719 196.371094 C 173.742188 199.527344 174.042969 203.4375 175.996094 206.746094 C 176.898438 200.128906 175.695312 193.664062 175.09375 186.597656 C 176.296875 188.550781 176.296875 190.207031 176.449219 191.859375 C 177.199219 196.371094 177.5 201.03125 177.351562 205.695312 C 177.351562 206.746094 177.652344 208.398438 176.148438 208.550781 C 174.945312 208.699219 174.644531 207.195312 174.492188 206.144531 C 173.441406 202.988281 172.539062 199.679688 171.636719 196.371094 Z M 171.636719 196.371094 " fill-opacity="1" fill-rule="nonzero"/><path fill="#191919" d="M 88.9375 250.953125 C 90.292969 251.101562 90.140625 252.304688 90.441406 253.058594 C 92.398438 259.070312 95.253906 264.484375 99.164062 269.445312 C 101.269531 272.003906 103.523438 274.257812 106.078125 276.8125 C 104.875 276.964844 104.425781 276.210938 103.972656 275.761719 C 97.058594 269.597656 92.546875 262.078125 89.839844 253.207031 C 89.691406 252.457031 89.691406 251.554688 88.9375 250.953125 Z M 88.9375 250.953125 " fill-opacity="1" fill-rule="nonzero"/><path fill="#191919" d="M 179.90625 163.894531 C 178.101562 163.742188 176.449219 163.59375 175.09375 162.691406 C 174.492188 162.390625 174.042969 161.9375 174.191406 161.1875 C 174.34375 160.585938 174.792969 160.433594 175.246094 160.132812 C 176.75 159.53125 181.109375 160.285156 182.3125 161.488281 C 183.0625 162.238281 182.914062 163.140625 181.863281 163.59375 C 181.109375 163.894531 180.359375 163.894531 179.90625 163.894531 Z M 179.90625 163.894531 " fill-opacity="1" fill-rule="nonzero"/><path fill="#191919" d="M 169.230469 213.363281 C 166.523438 206.597656 165.320312 199.527344 163.066406 192.613281 C 166.375 199.078125 168.328125 206.144531 169.230469 213.363281 Z M 169.230469 213.363281 " fill-opacity="1" fill-rule="nonzero"/><path fill="#191919" d="M 123.222656 115.175781 C 114.648438 120.136719 107.734375 126.90625 101.417969 134.875 C 103.824219 129.007812 116.90625 116.53125 123.222656 115.175781 Z M 123.222656 115.175781 " fill-opacity="1" fill-rule="nonzero"/><path fill="#191919" d="M 295.382812 312.449219 C 294.332031 315.308594 293.878906 315.609375 291.773438 314.707031 C 290.574219 314.253906 290.121094 314.554688 289.972656 315.757812 C 289.671875 317.710938 289.371094 319.667969 289.070312 321.472656 C 288.917969 322.375 288.917969 323.578125 287.714844 323.878906 C 286.363281 324.179688 285.910156 322.976562 285.460938 322.074219 C 283.65625 318.613281 282.601562 315.007812 281.699219 311.246094 C 283.65625 315.15625 284.40625 319.515625 287.265625 323.277344 C 288.769531 321.621094 288.46875 319.816406 288.917969 318.3125 C 289.21875 317.261719 289.070312 316.058594 289.519531 314.855469 C 289.820312 313.804688 290.574219 313.203125 291.472656 313.652344 C 293.128906 314.855469 294.332031 313.953125 295.382812 312.449219 Z M 295.382812 312.449219 " fill-opacity="1" fill-rule="nonzero"/><path fill="#191919" d="M 247.570312 145.398438 C 248.171875 145.398438 248.320312 145.851562 248.472656 146.300781 C 252.679688 153.96875 254.9375 162.238281 254.785156 171.109375 C 254.785156 171.410156 254.636719 171.5625 254.636719 171.863281 C 254.636719 171.863281 254.484375 171.863281 254.183594 172.011719 C 254.035156 169.757812 253.882812 167.652344 253.734375 165.398438 C 252.980469 159.082031 251.179688 153.066406 248.320312 147.355469 C 247.871094 146.753906 247.417969 146.152344 247.570312 145.398438 Z M 247.570312 145.398438 " fill-opacity="1" fill-rule="nonzero"/><path fill="#191919" d="M 122.46875 296.058594 C 119.3125 303.429688 116.152344 310.644531 112.246094 317.5625 C 115.101562 310.195312 118.558594 303.128906 122.46875 296.058594 Z M 122.46875 296.058594 " fill-opacity="1" fill-rule="nonzero"/><path fill="#191919" d="M 101.117188 333.800781 C 99.3125 342.671875 97.960938 351.542969 97.808594 360.566406 C 96.757812 351.394531 98.410156 342.523438 101.117188 333.800781 Z M 101.117188 333.800781 " fill-opacity="1" fill-rule="nonzero"/><path fill="#191919" d="M 302.902344 296.359375 C 304.707031 304.332031 307.714844 312.300781 305.15625 320.71875 C 306.660156 312.449219 304.253906 304.480469 302.902344 296.359375 Z M 302.902344 296.359375 " fill-opacity="1" fill-rule="nonzero"/><path fill="#191919" d="M 232.984375 169.90625 C 230.429688 162.539062 227.871094 155.023438 224.414062 147.957031 C 228.625 154.722656 231.332031 162.089844 232.984375 169.90625 Z M 232.984375 169.90625 " fill-opacity="1" fill-rule="nonzero"/><path fill="#191919" d="M 263.65625 187.648438 C 266.363281 180.433594 267.265625 172.914062 266.964844 165.246094 C 268.621094 172.011719 266.816406 184.644531 263.65625 187.648438 Z M 263.65625 187.648438 " fill-opacity="1" fill-rule="nonzero"/><path fill="#191919" d="M 206.519531 283.882812 C 214.789062 283.28125 222.457031 284.632812 230.128906 283.730469 C 224.863281 285.085938 220.203125 284.632812 206.519531 283.882812 Z M 206.519531 283.882812 " fill-opacity="1" fill-rule="nonzero"/><path fill="#191919" d="M 201.859375 340.117188 C 202.308594 334.253906 202.761719 328.386719 203.0625 322.375 C 203.8125 328.386719 203.210938 334.253906 202.308594 340.117188 C 202.160156 340.117188 202.011719 340.117188 201.859375 340.117188 Z M 201.859375 340.117188 " fill-opacity="1" fill-rule="nonzero"/><path fill="#191919" d="M 300.347656 247.644531 C 305.910156 249.898438 309.96875 253.808594 312.976562 258.769531 C 311.773438 258.167969 311.019531 256.964844 310.121094 256.066406 C 309.066406 255.011719 308.015625 253.808594 306.960938 252.757812 C 305.910156 251.703125 304.855469 250.800781 303.652344 250.050781 C 302.601562 249.148438 301.398438 248.394531 300.347656 247.644531 Z M 300.347656 247.644531 " fill-opacity="1" fill-rule="nonzero"/><path fill="#191919" d="M 231.332031 291.097656 C 231.03125 291.550781 230.730469 291.550781 230.277344 291.699219 C 224.5625 292 218.699219 292.300781 212.984375 292.152344 C 212.683594 292.152344 212.234375 292.152344 212.085938 291.550781 C 218.398438 291.25 224.863281 291.25 231.332031 291.097656 Z M 231.332031 291.097656 " fill-opacity="1" fill-rule="nonzero"/><path fill="#191919" d="M 77.210938 182.539062 C 76.457031 186.148438 74.953125 189.605469 73.753906 193.214844 C 72.851562 195.921875 71.949219 198.476562 71.046875 201.332031 C 70.59375 200.882812 70.746094 200.429688 70.894531 200.128906 C 72.699219 194.71875 74.503906 189.304688 76.308594 184.042969 C 76.457031 183.441406 76.308594 182.539062 77.210938 182.539062 Z M 77.210938 182.539062 " fill-opacity="1" fill-rule="nonzero"/><path fill="#191919" d="M 194.191406 298.765625 C 194.941406 293.65625 194.039062 288.542969 194.191406 283.28125 C 195.394531 288.542969 195.542969 293.65625 194.191406 298.765625 Z M 194.191406 298.765625 " fill-opacity="1" fill-rule="nonzero"/><path fill="#191919" d="M 235.238281 260.273438 C 236.742188 255.765625 238.847656 251.554688 243.507812 249.449219 C 242.15625 251.253906 240.351562 252.605469 239 254.410156 C 237.644531 256.367188 236.59375 258.46875 235.238281 260.273438 Z M 235.238281 260.273438 " fill-opacity="1" fill-rule="nonzero"/><path fill="#191919" d="M 306.058594 243.433594 C 307.414062 244.1875 308.917969 244.789062 310.722656 245.691406 C 309.96875 243.734375 308.316406 242.832031 308.316406 240.878906 C 309.820312 242.683594 311.320312 244.636719 312.824219 246.441406 C 313.125 246.742188 313.125 247.042969 312.824219 247.34375 C 312.523438 247.792969 312.222656 247.492188 311.921875 247.34375 C 309.820312 246.140625 307.863281 244.9375 305.757812 243.734375 C 305.757812 243.734375 305.910156 243.585938 306.058594 243.433594 Z M 306.058594 243.433594 " fill-opacity="1" fill-rule="nonzero"/><path fill="#191919" d="M 272.980469 174.71875 C 274.183594 182.386719 273.730469 188.25 271.777344 192.011719 C 272.980469 186.296875 272.980469 180.433594 272.980469 174.71875 Z M 272.980469 174.71875 " fill-opacity="1" fill-rule="nonzero"/><path fill="#191919" d="M 149.234375 178.175781 C 153.441406 179.078125 157.050781 177.125 161.261719 176.375 C 158.253906 179.230469 152.691406 179.980469 149.234375 178.175781 Z M 149.234375 178.175781 " fill-opacity="1" fill-rule="nonzero"/><path fill="#191919" d="M 199.152344 257.117188 C 201.410156 261.476562 200.957031 265.539062 198.550781 269.597656 C 198.402344 267.339844 199.605469 265.539062 199.753906 263.433594 C 200.054688 261.328125 199.605469 259.222656 199.152344 257.117188 Z M 199.152344 257.117188 " fill-opacity="1" fill-rule="nonzero"/><path fill="#191919" d="M 187.125 299.367188 C 186.824219 295.609375 186.371094 291.851562 186.070312 288.089844 C 187.574219 291.699219 188.175781 295.460938 187.726562 299.367188 C 187.574219 299.367188 187.425781 299.367188 187.125 299.367188 Z M 187.125 299.367188 " fill-opacity="1" fill-rule="nonzero"/><path fill="#191919" d="M 206.820312 210.957031 C 202.609375 210.957031 200.054688 208.097656 197.347656 205.394531 C 200.507812 207.347656 203.363281 209.453125 206.820312 210.957031 Z M 206.820312 210.957031 " fill-opacity="1" fill-rule="nonzero"/><path fill="#191919" d="M 110.890625 200.582031 C 111.945312 200.582031 112.695312 200.429688 112.546875 199.078125 C 112.394531 198.175781 112.246094 197.273438 112.09375 196.523438 C 111.492188 193.816406 110.441406 191.109375 109.539062 188.402344 C 109.238281 187.5 108.636719 186.597656 108.785156 185.546875 C 109.539062 185.847656 109.539062 186.597656 109.839844 187.199219 C 110.890625 190.355469 112.246094 193.515625 112.996094 196.824219 C 113.296875 197.875 113.445312 198.925781 113.148438 199.980469 C 112.546875 201.332031 111.792969 201.632812 110.890625 200.582031 Z M 110.890625 200.582031 " fill-opacity="1" fill-rule="nonzero"/><path fill="#191919" d="M 218.851562 242.832031 C 218.851562 244.488281 219 245.992188 219 247.644531 C 219 249.296875 219.753906 250.652344 220.503906 252.15625 C 218.699219 251.253906 218.398438 250.5 218.097656 248.09375 C 217.949219 246.140625 218.097656 244.488281 218.851562 242.832031 Z M 218.851562 242.832031 " fill-opacity="1" fill-rule="nonzero"/><path fill="#191919" d="M 294.78125 229.449219 C 299.445312 228.246094 302.75 225.84375 305.007812 222.082031 C 304.105469 226.144531 299.746094 229.300781 294.78125 229.449219 Z M 294.78125 229.449219 " fill-opacity="1" fill-rule="nonzero"/><path fill="#191919" d="M 104.273438 158.179688 C 103.375 160.886719 103.824219 163.742188 103.972656 166.601562 C 104.125 168.703125 104.875 170.960938 105.175781 173.066406 C 104.875 173.066406 104.574219 172.914062 104.425781 172.464844 C 103.222656 168.101562 103.074219 163.59375 103.375 158.929688 C 103.523438 158.328125 103.972656 158.328125 104.273438 158.179688 Z M 104.273438 158.179688 " fill-opacity="1" fill-rule="nonzero"/><path fill="#191919" d="M 125.324219 210.203125 C 124.875 211.105469 123.820312 211.105469 123.070312 211.257812 C 118.859375 212.308594 114.800781 211.558594 110.742188 210.355469 C 111.492188 209.902344 112.246094 210.054688 113.148438 210.355469 C 117.054688 211.40625 120.816406 211.40625 124.722656 210.203125 C 124.722656 210.203125 125.023438 210.203125 125.324219 210.203125 Z M 125.324219 210.203125 " fill-opacity="1" fill-rule="nonzero"/><path fill="#191919" d="M 150.136719 171.109375 C 150.4375 171.109375 150.886719 171.261719 151.339844 171.261719 C 151.640625 171.261719 151.941406 171.5625 152.089844 172.011719 C 152.089844 172.3125 151.941406 172.613281 151.640625 172.914062 C 151.039062 173.367188 150.285156 173.515625 149.683594 173.515625 C 148.933594 173.515625 147.878906 173.816406 147.730469 172.765625 C 147.578125 171.863281 148.632812 171.5625 149.382812 171.410156 C 149.382812 171.109375 149.683594 171.109375 150.136719 171.109375 Z M 150.136719 171.109375 " fill-opacity="1" fill-rule="nonzero"/><path fill="#191919" d="M 276.738281 222.082031 C 272.828125 222.082031 269.070312 222.082031 265.160156 222.082031 C 269.070312 221.480469 272.828125 221.480469 276.738281 222.082031 Z M 276.738281 222.082031 " fill-opacity="1" fill-rule="nonzero"/><path fill="#191919" d="M 297.1875 273.957031 C 299.292969 275.761719 300.195312 278.167969 300.347656 280.875 C 299.445312 278.46875 298.390625 276.214844 297.1875 273.957031 Z M 297.1875 273.957031 " fill-opacity="1" fill-rule="nonzero"/><path fill="#191919" d="M 108.785156 185.695312 C 107.433594 183.742188 106.980469 181.484375 106.679688 179.230469 C 107.882812 181.183594 108.484375 183.441406 108.785156 185.695312 C 108.636719 185.695312 108.785156 185.695312 108.785156 185.695312 Z M 108.785156 185.695312 " fill-opacity="1" fill-rule="nonzero"/><path fill="#191919" d="M 262.304688 200.882812 C 264.410156 200.882812 266.664062 200.882812 268.769531 200.882812 C 268.769531 200.882812 268.769531 201.03125 268.769531 201.03125 C 266.664062 201.03125 264.410156 201.03125 262.304688 201.03125 C 262.304688 200.882812 262.304688 200.882812 262.304688 200.882812 Z M 262.304688 200.882812 " fill-opacity="1" fill-rule="nonzero"/><path fill="#191919" d="M 276.289062 190.507812 C 276.289062 192.3125 276.289062 194.117188 276.289062 196.070312 C 275.835938 194.117188 275.835938 193.0625 276.289062 190.507812 Z M 276.289062 190.507812 " fill-opacity="1" fill-rule="nonzero"/><path fill="#191919" d="M 106.53125 179.230469 C 105.777344 177.277344 104.574219 175.320312 105.328125 172.914062 C 105.476562 175.171875 106.679688 177.125 106.53125 179.230469 Z M 106.53125 179.230469 " fill-opacity="1" fill-rule="nonzero"/><path fill="#191919" d="M 274.933594 211.558594 C 273.128906 211.859375 271.324219 211.707031 269.523438 211.40625 C 271.324219 211.105469 273.28125 211.40625 274.933594 211.558594 Z M 274.933594 211.558594 " fill-opacity="1" fill-rule="nonzero"/><path fill="#191919" d="M 130.589844 169.605469 C 129.085938 168.554688 128.183594 167.050781 127.128906 165.546875 C 128.632812 166.601562 130.136719 167.800781 130.589844 169.605469 C 130.738281 169.457031 130.589844 169.605469 130.589844 169.605469 Z M 130.589844 169.605469 " fill-opacity="1" fill-rule="nonzero"/><path fill="#191919" d="M 208.625 324.328125 C 208.925781 326.132812 209.078125 327.9375 208.625 330.34375 C 208.324219 327.9375 208.625 326.132812 208.625 324.328125 Z M 208.625 324.328125 " fill-opacity="1" fill-rule="nonzero"/><path fill="#191919" d="M 302 289.894531 C 302 291.25 303.050781 292.601562 302.601562 293.957031 C 302.300781 292.753906 301.699219 291.398438 302 289.894531 Z M 302 289.894531 " fill-opacity="1" fill-rule="nonzero"/><path fill="#191919" d="M 137.65625 337.710938 C 137.503906 339.363281 136.601562 340.71875 135.699219 342.070312 C 136.152344 340.566406 136.453125 339.0625 137.65625 337.710938 C 137.65625 337.859375 137.65625 337.710938 137.65625 337.710938 Z M 137.65625 337.710938 " fill-opacity="1" fill-rule="nonzero"/><path fill="#191919" d="M 199.90625 296.511719 C 200.054688 295.308594 200.355469 294.105469 200.65625 292.753906 C 201.109375 294.707031 201.109375 294.707031 199.90625 296.511719 Z M 199.90625 296.511719 " fill-opacity="1" fill-rule="nonzero"/><path fill="#191919" d="M 110.890625 200.582031 C 109.386719 200.28125 108.785156 199.078125 108.035156 197.722656 C 109.085938 198.625 109.988281 199.679688 110.890625 200.582031 Z M 110.890625 200.582031 " fill-opacity="1" fill-rule="nonzero"/><path fill="#191919" d="M 125.324219 210.203125 C 126.378906 209 127.882812 208.851562 129.234375 208.25 C 128.03125 209.152344 126.980469 210.355469 125.324219 210.203125 Z M 125.324219 210.203125 " fill-opacity="1" fill-rule="nonzero"/><path fill="#191919" d="M 110.890625 268.695312 C 109.539062 267.941406 109.085938 266.589844 108.484375 265.386719 C 109.386719 266.4375 110.589844 267.191406 110.890625 268.695312 Z M 110.890625 268.695312 " fill-opacity="1" fill-rule="nonzero"/><path fill="#191919" d="M 77.210938 182.539062 C 76.757812 181.035156 77.960938 179.980469 78.414062 178.628906 C 78.261719 179.980469 77.960938 181.335938 77.210938 182.539062 Z M 77.210938 182.539062 " fill-opacity="1" fill-rule="nonzero"/><path fill="#191919" d="M 221.859375 327.785156 C 221.707031 326.132812 222.308594 324.78125 223.511719 323.578125 C 223.058594 324.929688 222.910156 326.433594 221.859375 327.785156 C 221.859375 327.636719 221.859375 327.785156 221.859375 327.785156 Z M 221.859375 327.785156 " fill-opacity="1" fill-rule="nonzero"/><path fill="#191919" d="M 104.425781 158.179688 C 103.523438 156.675781 104.125 155.472656 105.027344 153.519531 C 104.875 155.472656 104.125 156.828125 104.425781 158.179688 C 104.273438 158.179688 104.425781 158.179688 104.425781 158.179688 Z M 104.425781 158.179688 " fill-opacity="1" fill-rule="nonzero"/><path fill="#191919" d="M 272.980469 312.902344 C 272.679688 311.546875 272.980469 310.042969 272.527344 308.691406 C 273.582031 310.042969 273.429688 311.546875 272.980469 312.902344 Z M 272.980469 312.902344 " fill-opacity="1" fill-rule="nonzero"/><path fill="#191919" d="M 235.539062 356.054688 C 235.992188 356.957031 235.691406 357.558594 235.539062 358.308594 C 235.238281 357.558594 235.238281 356.804688 235.539062 356.054688 Z M 235.539062 356.054688 " fill-opacity="1" fill-rule="nonzero"/><path fill="#191919" d="M 247.570312 145.398438 C 246.667969 144.949219 246.515625 144.046875 246.066406 143.144531 C 247.117188 143.59375 247.570312 144.347656 247.570312 145.398438 Z M 247.570312 145.398438 " fill-opacity="1" fill-rule="nonzero"/><path fill="#191919" d="M 223.511719 323.578125 C 223.210938 322.675781 223.660156 322.074219 224.414062 321.019531 C 224.261719 322.222656 223.960938 322.824219 223.511719 323.578125 C 223.511719 323.425781 223.511719 323.578125 223.511719 323.578125 Z M 223.511719 323.578125 " fill-opacity="1" fill-rule="nonzero"/><path fill="#191919" d="M 89.238281 247.34375 C 88.488281 246.890625 88.1875 246.292969 88.636719 245.390625 C 88.9375 246.140625 88.488281 246.890625 89.238281 247.34375 Z M 89.238281 247.34375 " fill-opacity="1" fill-rule="nonzero"/><path fill="#191919" d="M 79.917969 175.171875 C 79.765625 174.117188 80.21875 173.816406 80.519531 173.367188 C 80.820312 174.117188 80.21875 174.417969 79.917969 175.171875 Z M 79.917969 175.171875 " fill-opacity="1" fill-rule="nonzero"/><path fill="#191919" d="M 108.636719 339.816406 C 108.785156 340.71875 108.484375 341.320312 107.734375 342.070312 C 107.882812 341.167969 108.183594 340.566406 108.636719 339.816406 C 108.785156 339.964844 108.636719 339.816406 108.636719 339.816406 Z M 108.636719 339.816406 " fill-opacity="1" fill-rule="nonzero"/><path fill="#191919" d="M 231.332031 291.097656 C 232.082031 290.496094 232.683594 290.648438 233.886719 290.796875 C 232.832031 291.398438 232.082031 291.398438 231.332031 291.097656 Z M 231.332031 291.097656 " fill-opacity="1" fill-rule="nonzero"/><path fill="#191919" d="M 89.089844 250.953125 C 89.390625 249.75 88.636719 248.546875 89.390625 247.492188 C 89.238281 248.546875 89.839844 249.75 89.089844 250.953125 C 88.9375 250.953125 89.089844 250.953125 89.089844 250.953125 Z M 89.089844 250.953125 " fill-opacity="1" fill-rule="nonzero"/><path fill="#191919" d="M 181.710938 67.511719 C 182.011719 66.460938 182.761719 66.609375 183.515625 66.308594 C 187.726562 65.105469 192.085938 64.804688 196.445312 65.40625 C 196.898438 65.40625 197.347656 65.558594 197.648438 65.859375 C 198.101562 66.160156 198.550781 66.460938 198.402344 67.0625 C 198.25 67.664062 197.800781 67.964844 197.347656 67.964844 C 196.898438 67.964844 196.296875 68.113281 195.695312 67.964844 C 192.085938 67.210938 188.476562 67.511719 184.867188 67.664062 C 183.816406 67.964844 182.761719 68.113281 181.710938 67.511719 Z M 181.710938 67.511719 " fill-opacity="1" fill-rule="nonzero"/><path fill="#191919" d="M 201.710938 90.367188 C 201.859375 89.914062 202.308594 89.765625 202.761719 89.765625 C 203.511719 89.613281 204.113281 89.613281 204.867188 89.464844 C 208.476562 88.863281 208.777344 88.261719 208.476562 84.804688 C 208.175781 81.496094 207.722656 78.1875 207.421875 74.730469 C 208.324219 74.878906 208.324219 75.632812 208.476562 76.234375 C 209.226562 79.539062 209.679688 83 209.980469 86.457031 C 210.128906 88.261719 209.378906 89.464844 207.722656 90.214844 C 205.46875 91.417969 203.511719 91.417969 201.710938 90.367188 Z M 201.710938 90.367188 " fill-opacity="1" fill-rule="nonzero"/><path fill="#191919" d="M 185.167969 73.976562 C 185.921875 73.675781 186.371094 74.277344 186.824219 74.578125 C 189.53125 76.082031 192.238281 76.082031 194.941406 74.878906 C 195.394531 74.730469 195.84375 74.429688 196.445312 74.277344 C 197.046875 74.128906 197.199219 74.578125 197.046875 75.03125 C 196.898438 75.332031 196.746094 75.480469 196.597656 75.632812 C 193.738281 78.640625 187.273438 77.738281 185.167969 73.976562 Z M 185.167969 73.976562 " fill-opacity="1" fill-rule="nonzero"/><path fill="#191919" d="M 222.457031 72.023438 C 220.203125 76.082031 216.292969 76.835938 213.285156 73.828125 C 214.941406 73.828125 216.445312 74.578125 217.949219 74.429688 C 219.601562 73.976562 220.503906 72.472656 222.457031 72.023438 Z M 222.457031 72.023438 " fill-opacity="1" fill-rule="nonzero"/><path fill="#191919" d="M 209.828125 98.785156 C 204.867188 101.492188 200.054688 101.792969 194.941406 98.9375 C 200.054688 100.589844 204.867188 99.988281 209.828125 98.785156 Z M 209.828125 98.785156 " fill-opacity="1" fill-rule="nonzero"/></svg>