<svg xmlns="http://www.w3.org/2000/svg" xmlns:xlink="http://www.w3.org/1999/xlink" width="113" zoomAndPan="magnify" viewBox="0 0 84.75 42" height="56" preserveAspectRatio="xMidYMid meet" version="1.0"><defs><clipPath id="36956c14e3"><path d="M 1.226562 0 L 82.914062 0 L 82.914062 40.664062 L 1.226562 40.664062 Z M 1.226562 0 " clip-rule="nonzero"/></clipPath></defs><g clip-path="url(#36956c14e3)"><path stroke-linecap="round" transform="matrix(0.544598, 0, 0, 0.544598, 1.527076, -0.183138)" fill-opacity="1" fill="#0a3979" fill-rule="evenodd" stroke-linejoin="miter" d="M 106.106571 75.004318 L 86.797603 75.004318 L 86.797603 -0.000837635 L 106.106571 -0.000837635 L 106.106571 27.018807 L 129.597236 27.018807 L 129.597236 -0.000837635 L 148.899031 -0.000837635 L 148.899031 75.004318 L 129.597236 75.004318 L 129.597236 44.778467 L 106.106571 44.778467 Z M 16.985498 75.004318 L 16.985498 17.536468 L 0.000491761 17.536468 L 0.000491761 -0.000837635 L 53.164708 -0.000837635 L 53.164708 17.536468 L 36.287293 17.536468 L 36.287293 75.004318 Z M 16.985498 75.004318 " stroke="#ffffff" stroke-width="0.945" stroke-opacity="1" stroke-miterlimit="4"/></g></svg>