<svg xmlns="http://www.w3.org/2000/svg" xmlns:xlink="http://www.w3.org/1999/xlink" width="534" zoomAndPan="magnify" viewBox="0 0 400.5 62.249996" height="83" preserveAspectRatio="xMidYMid meet" version="1.0"><defs><clipPath id="efe8778875"><path d="M 2.136719 0 L 397.867188 0 L 397.867188 61.140625 L 2.136719 61.140625 Z M 2.136719 0 " clip-rule="nonzero"/></clipPath></defs><g clip-path="url(#efe8778875)"><path fill="#0a3979" d="M 252.449219 49.613281 L 240.792969 49.613281 L 240.792969 4.328125 L 252.449219 4.328125 L 252.449219 20.644531 L 266.628906 20.644531 L 266.628906 4.328125 L 278.285156 4.328125 L 278.285156 49.613281 L 266.628906 49.613281 L 266.628906 31.367188 L 252.449219 31.367188 Z M 301.863281 40.558594 C 302.429688 40.5625 302.988281 40.503906 303.542969 40.378906 C 304.359375 40.1875 305.0625 39.847656 305.640625 39.351562 C 305.765625 39.25 305.878906 39.140625 305.992188 39.027344 C 306.53125 38.449219 306.910156 37.78125 307.132812 37.023438 C 307.289062 36.507812 307.390625 35.941406 307.433594 35.324219 C 307.449219 35.089844 307.457031 34.859375 307.457031 34.628906 L 307.457031 15.183594 C 310.429688 15.183594 312.414062 14.394531 313.414062 12.820312 C 313.835938 12.136719 314.15625 11.40625 314.371094 10.632812 C 314.574219 9.929688 314.722656 9.152344 314.808594 8.304688 C 314.882812 7.605469 314.914062 6.898438 314.914062 6.195312 L 324.304688 6.195312 C 324.347656 9.210938 323.871094 11.839844 322.871094 14.085938 C 321.871094 16.328125 320.394531 18.113281 318.445312 19.445312 L 318.445312 49.613281 L 307.457031 49.613281 L 307.457031 47.882812 C 306.296875 48.691406 305.046875 49.316406 303.703125 49.757812 C 303.613281 49.789062 303.519531 49.820312 303.425781 49.847656 C 302.273438 50.203125 301.089844 50.421875 299.882812 50.503906 C 299.457031 50.53125 299.027344 50.546875 298.597656 50.546875 C 297.332031 50.554688 296.09375 50.398438 294.871094 50.070312 C 293.824219 49.789062 292.835938 49.371094 291.902344 48.8125 C 290.136719 47.75 288.753906 46.316406 287.75 44.515625 C 287.617188 44.289062 287.496094 44.054688 287.375 43.820312 C 286.289062 41.644531 285.746094 39.070312 285.746094 36.09375 L 285.746094 15.183594 L 296.734375 15.183594 L 296.734375 34.628906 C 296.730469 35.226562 296.78125 35.820312 296.894531 36.410156 C 297.027344 37.113281 297.25 37.746094 297.5625 38.304688 C 297.683594 38.523438 297.816406 38.726562 297.964844 38.925781 C 298.503906 39.632812 299.207031 40.101562 300.066406 40.328125 C 300.496094 40.453125 300.972656 40.523438 301.496094 40.546875 C 301.617188 40.554688 301.738281 40.558594 301.863281 40.558594 Z M 36.222656 48.234375 C 36.488281 46.84375 36.617188 45.4375 36.609375 44.019531 L 36.609375 15.183594 L 25.621094 15.183594 L 25.621094 16.914062 C 24.554688 16.160156 23.332031 15.5625 21.957031 15.117188 C 20.582031 14.671875 19.09375 14.449219 17.496094 14.449219 C 15.496094 14.449219 13.589844 14.839844 11.769531 15.617188 C 9.949219 16.394531 8.328125 17.515625 6.90625 18.980469 C 6.851562 19.039062 6.792969 19.097656 6.742188 19.15625 C 5.367188 20.625 4.3125 22.300781 3.578125 24.175781 C 3.269531 24.941406 3.027344 25.726562 2.839844 26.53125 C 2.523438 27.925781 2.371094 29.339844 2.375 30.769531 C 2.375 33.875 3 36.59375 4.242188 38.925781 C 5.484375 41.257812 7.207031 43.078125 9.402344 44.386719 C 10.316406 44.929688 11.277344 45.359375 12.289062 45.675781 C 13.789062 46.136719 15.324219 46.363281 16.894531 46.351562 C 18.582031 46.351562 20.160156 46.109375 21.625 45.617188 C 23.089844 45.128906 24.375 44.460938 25.484375 43.621094 L 25.484375 44.816406 C 25.484375 46.816406 24.652344 48.382812 22.988281 49.515625 C 22.539062 49.820312 22.0625 50.074219 21.558594 50.285156 C 20.105469 50.894531 18.328125 51.195312 16.230469 51.179688 C 13.386719 51.160156 10.214844 50.457031 6.707031 49.082031 L 6.707031 59.539062 C 7.980469 59.894531 9.265625 60.199219 10.5625 60.449219 C 13.125 60.933594 15.601562 61.164062 17.996094 61.136719 C 19.210938 61.125 20.417969 61.03125 21.621094 60.863281 C 23.675781 60.578125 25.65625 60.019531 27.550781 59.171875 C 30.347656 57.90625 32.558594 56.007812 34.175781 53.476562 C 35.152344 51.953125 35.832031 50.207031 36.222656 48.234375 Z M 397.242188 48.234375 C 397.503906 46.84375 397.632812 45.4375 397.625 44.019531 L 397.625 15.183594 L 386.636719 15.183594 L 386.636719 16.914062 C 385.574219 16.160156 384.351562 15.5625 382.976562 15.117188 C 381.597656 14.671875 380.109375 14.449219 378.515625 14.449219 C 376.515625 14.449219 374.605469 14.839844 372.785156 15.617188 C 370.964844 16.394531 369.347656 17.515625 367.925781 18.980469 C 367.871094 19.039062 367.8125 19.097656 367.757812 19.15625 C 366.382812 20.625 365.332031 22.300781 364.59375 24.175781 C 364.289062 24.941406 364.042969 25.726562 363.859375 26.53125 C 363.542969 27.925781 363.386719 29.339844 363.394531 30.769531 C 363.394531 33.875 364.015625 36.59375 365.261719 38.925781 C 366.503906 41.257812 368.226562 43.078125 370.421875 44.386719 C 371.332031 44.929688 372.292969 45.359375 373.308594 45.675781 C 374.808594 46.136719 376.34375 46.363281 377.914062 46.351562 C 379.601562 46.351562 381.175781 46.109375 382.640625 45.617188 C 384.105469 45.128906 385.394531 44.460938 386.503906 43.621094 L 386.503906 44.816406 C 386.503906 46.816406 385.671875 48.382812 384.007812 49.515625 C 383.554688 49.820312 383.082031 50.074219 382.578125 50.285156 C 381.125 50.894531 379.34375 51.195312 377.246094 51.179688 C 374.40625 51.160156 371.234375 50.457031 367.722656 49.082031 L 367.722656 59.539062 C 368.996094 59.894531 370.285156 60.199219 371.578125 60.449219 C 374.144531 60.933594 376.621094 61.164062 379.011719 61.136719 C 380.226562 61.125 381.433594 61.03125 382.636719 60.863281 C 384.695312 60.578125 386.671875 60.019531 388.570312 59.171875 C 391.367188 57.90625 393.574219 56.007812 395.195312 53.476562 C 396.171875 51.953125 396.851562 50.207031 397.242188 48.234375 Z M 186.648438 49.613281 L 186.648438 15.183594 L 197.636719 15.183594 L 197.636719 16.914062 C 198.796875 16.105469 200.046875 15.480469 201.386719 15.039062 C 201.480469 15.011719 201.574219 14.980469 201.667969 14.953125 C 202.820312 14.59375 204.003906 14.375 205.210938 14.296875 C 205.636719 14.269531 206.066406 14.25 206.492188 14.253906 C 207.757812 14.246094 209 14.402344 210.222656 14.726562 C 211.269531 15.011719 212.257812 15.425781 213.1875 15.984375 C 215.019531 17.082031 216.441406 18.570312 217.453125 20.449219 C 217.546875 20.613281 217.632812 20.777344 217.714844 20.945312 C 218.316406 22.152344 218.742188 23.417969 218.992188 24.742188 C 219.210938 25.875 219.328125 27.082031 219.347656 28.371094 C 219.347656 28.484375 219.347656 28.59375 219.347656 28.703125 L 219.347656 49.613281 L 208.359375 49.613281 L 208.359375 30.167969 C 208.363281 29.570312 208.3125 28.976562 208.199219 28.386719 C 208.0625 27.683594 207.84375 27.054688 207.53125 26.492188 C 207.410156 26.277344 207.277344 26.070312 207.128906 25.875 C 206.585938 25.164062 205.886719 24.695312 205.027344 24.46875 C 204.597656 24.347656 204.121094 24.273438 203.597656 24.25 C 203.476562 24.246094 203.355469 24.242188 203.230469 24.242188 C 202.664062 24.238281 202.105469 24.292969 201.550781 24.421875 C 200.734375 24.609375 200.03125 24.953125 199.449219 25.445312 C 199.328125 25.550781 199.214844 25.65625 199.101562 25.769531 C 198.5625 26.347656 198.179688 27.019531 197.960938 27.773438 C 197.804688 28.289062 197.703125 28.855469 197.660156 29.476562 C 197.644531 29.707031 197.636719 29.9375 197.636719 30.167969 L 197.636719 49.613281 Z M 325.769531 49.613281 L 325.769531 15.183594 L 336.757812 15.183594 L 336.757812 16.914062 C 337.917969 16.105469 339.164062 15.480469 340.507812 15.039062 C 340.601562 15.011719 340.695312 14.980469 340.789062 14.953125 C 341.941406 14.59375 343.125 14.375 344.328125 14.296875 C 344.757812 14.269531 345.183594 14.25 345.613281 14.253906 C 346.878906 14.246094 348.121094 14.402344 349.339844 14.726562 C 350.390625 15.011719 351.378906 15.425781 352.308594 15.984375 C 354.136719 17.082031 355.558594 18.570312 356.574219 20.449219 C 356.664062 20.613281 356.753906 20.777344 356.835938 20.945312 C 357.4375 22.152344 357.859375 23.417969 358.109375 24.742188 C 358.328125 25.875 358.449219 27.082031 358.464844 28.371094 C 358.464844 28.484375 358.46875 28.59375 358.46875 28.703125 L 358.46875 49.613281 L 347.480469 49.613281 L 347.480469 30.167969 C 347.484375 29.570312 347.429688 28.976562 347.320312 28.386719 C 347.183594 27.683594 346.960938 27.054688 346.648438 26.492188 C 346.53125 26.277344 346.398438 26.070312 346.25 25.875 C 345.707031 25.164062 345.007812 24.695312 344.148438 24.46875 C 343.71875 24.347656 343.238281 24.273438 342.71875 24.25 C 342.597656 24.246094 342.472656 24.242188 342.351562 24.242188 C 341.785156 24.238281 341.226562 24.292969 340.671875 24.421875 C 339.851562 24.609375 339.152344 24.953125 338.570312 25.445312 C 338.449219 25.550781 338.332031 25.65625 338.222656 25.769531 C 337.679688 26.347656 337.300781 27.019531 337.082031 27.773438 C 336.921875 28.289062 336.820312 28.855469 336.78125 29.476562 C 336.765625 29.707031 336.757812 29.9375 336.757812 30.167969 L 336.757812 49.613281 Z M 41.136719 15.183594 L 53.390625 15.183594 C 54.191406 16.515625 55.011719 17.859375 55.851562 19.210938 C 56.699219 20.566406 57.519531 21.910156 58.320312 23.242188 C 59.160156 21.910156 60.007812 20.566406 60.851562 19.210938 C 61.691406 17.859375 62.535156 16.515625 63.378906 15.183594 L 75.5 15.183594 C 73.769531 17.894531 72.003906 20.621094 70.203125 23.375 C 68.40625 26.125 66.644531 28.882812 64.910156 31.632812 C 66.730469 34.609375 68.574219 37.605469 70.4375 40.625 C 72.304688 43.640625 74.125 46.636719 75.898438 49.613281 L 63.644531 49.613281 C 62.757812 48.105469 61.859375 46.582031 60.949219 45.050781 C 60.039062 43.523438 59.140625 42 58.253906 40.492188 C 57.363281 42 56.441406 43.523438 55.488281 45.050781 C 54.535156 46.582031 53.613281 48.105469 52.726562 49.613281 L 40.605469 49.613281 C 42.425781 46.730469 44.265625 43.789062 46.132812 40.789062 C 47.996094 37.792969 49.839844 34.851562 51.660156 31.964844 C 49.925781 29.214844 48.171875 26.417969 46.398438 23.574219 C 44.621094 20.734375 42.867188 17.9375 41.136719 15.183594 Z M 121.851562 49.613281 L 121.851562 14.917969 L 111.59375 14.917969 L 111.59375 4.328125 L 143.695312 4.328125 L 143.695312 14.917969 L 133.503906 14.917969 L 133.503906 49.613281 Z M 168.335938 49.613281 L 168.335938 47.617188 C 167.226562 48.550781 165.972656 49.269531 164.574219 49.78125 C 163.175781 50.289062 161.675781 50.546875 160.078125 50.546875 C 157.8125 50.546875 155.683594 50.113281 153.683594 49.246094 C 151.6875 48.382812 149.921875 47.140625 148.390625 45.519531 C 146.941406 43.976562 145.8125 42.226562 145.003906 40.273438 C 144.929688 40.101562 144.859375 39.929688 144.792969 39.757812 C 144.179688 38.167969 143.792969 36.527344 143.621094 34.835938 C 143.539062 34.011719 143.492188 33.1875 143.492188 32.363281 C 143.488281 30.929688 143.621094 29.503906 143.882812 28.089844 C 144.089844 27 144.394531 25.941406 144.792969 24.90625 C 145.371094 23.398438 146.148438 21.996094 147.113281 20.699219 C 147.507812 20.179688 147.933594 19.683594 148.390625 19.210938 C 149.921875 17.636719 151.6875 16.417969 153.683594 15.550781 C 155.683594 14.683594 157.789062 14.253906 160.011719 14.253906 C 161.507812 14.253906 162.925781 14.472656 164.265625 14.921875 C 164.359375 14.953125 164.449219 14.984375 164.539062 15.015625 C 165.75 15.445312 166.875 16.039062 167.910156 16.792969 C 168.058594 16.898438 168.195312 17.003906 168.335938 17.117188 L 168.335938 15.183594 L 179.324219 15.183594 L 179.324219 49.613281 Z M 149.890625 10.457031 C 151.128906 8.726562 152.363281 6.980469 153.585938 5.226562 C 154.804688 3.472656 156.039062 1.734375 157.28125 0 L 169 0 C 170.242188 1.734375 171.476562 3.472656 172.695312 5.226562 C 173.917969 6.980469 175.152344 8.726562 176.394531 10.457031 L 166.269531 10.457031 C 165.738281 9.699219 165.21875 8.933594 164.703125 8.15625 C 164.195312 7.378906 163.671875 6.613281 163.140625 5.859375 C 162.609375 6.613281 162.085938 7.378906 161.578125 8.15625 C 161.0625 8.933594 160.542969 9.699219 160.011719 10.457031 Z M 161.542969 40.824219 C 162.390625 40.835938 163.214844 40.695312 164.015625 40.410156 C 165.074219 40.011719 165.960938 39.371094 166.671875 38.492188 C 167.480469 37.503906 168.023438 36.382812 168.300781 35.132812 C 168.492188 34.339844 168.589844 33.480469 168.601562 32.550781 C 168.601562 32.488281 168.601562 32.429688 168.601562 32.363281 C 168.601562 29.835938 167.957031 27.804688 166.671875 26.273438 C 166.101562 25.582031 165.421875 25.039062 164.621094 24.640625 C 163.820312 24.246094 162.976562 24.027344 162.082031 23.992188 C 161.902344 23.980469 161.722656 23.972656 161.542969 23.972656 C 160.742188 23.964844 159.964844 24.082031 159.203125 24.320312 C 158.074219 24.683594 157.136719 25.324219 156.382812 26.242188 C 155.660156 27.113281 155.15625 28.097656 154.871094 29.195312 C 154.613281 30.144531 154.480469 31.199219 154.480469 32.363281 C 154.476562 33.222656 154.558594 34.070312 154.722656 34.914062 C 155.011719 36.335938 155.566406 37.539062 156.382812 38.527344 C 156.9375 39.210938 157.609375 39.746094 158.398438 40.144531 C 159.183594 40.539062 160.015625 40.757812 160.894531 40.800781 C 161.109375 40.816406 161.328125 40.824219 161.542969 40.824219 Z M 85.953125 50.679688 C 84.667969 50.679688 83.480469 50.367188 82.394531 49.75 C 81.304688 49.125 80.449219 48.285156 79.832031 47.21875 C 79.207031 46.152344 78.894531 44.996094 78.894531 43.753906 C 78.894531 42.511719 79.207031 41.367188 79.832031 40.324219 C 80.449219 39.28125 81.304688 38.449219 82.394531 37.824219 C 83.480469 37.207031 84.667969 36.894531 85.953125 36.894531 C 86.847656 36.886719 87.707031 37.046875 88.535156 37.375 C 88.851562 37.5 89.160156 37.652344 89.453125 37.824219 C 90.496094 38.449219 91.339844 39.28125 91.984375 40.324219 C 92.628906 41.367188 92.949219 42.511719 92.949219 43.753906 C 92.949219 44.996094 92.628906 46.152344 91.984375 47.21875 C 91.339844 48.285156 90.496094 49.125 89.453125 49.75 C 88.414062 50.359375 87.292969 50.671875 86.089844 50.679688 C 86.046875 50.679688 86 50.679688 85.953125 50.679688 Z M 19.625 36.828125 C 20.3125 36.835938 20.984375 36.746094 21.644531 36.558594 C 22.605469 36.285156 23.429688 35.785156 24.121094 35.0625 C 25.050781 34.09375 25.589844 32.945312 25.746094 31.613281 C 25.796875 31.246094 25.820312 30.875 25.820312 30.5 C 25.828125 29.785156 25.738281 29.078125 25.550781 28.390625 C 25.289062 27.417969 24.808594 26.570312 24.121094 25.839844 C 23.652344 25.347656 23.113281 24.945312 22.507812 24.648438 C 21.894531 24.347656 21.25 24.164062 20.574219 24.097656 C 20.261719 24.058594 19.945312 24.042969 19.625 24.042969 C 18.941406 24.035156 18.265625 24.117188 17.601562 24.289062 C 16.582031 24.546875 15.703125 25.054688 14.964844 25.804688 C 14.105469 26.6875 13.574219 27.734375 13.371094 28.945312 C 13.277344 29.457031 13.230469 29.976562 13.234375 30.5 C 13.226562 31.1875 13.3125 31.863281 13.488281 32.527344 C 13.75 33.519531 14.242188 34.375 14.964844 35.097656 C 16.121094 36.25 17.671875 36.828125 19.625 36.828125 Z M 380.644531 36.828125 C 381.332031 36.835938 382.003906 36.746094 382.660156 36.558594 C 383.621094 36.285156 384.449219 35.785156 385.140625 35.0625 C 386.066406 34.09375 386.609375 32.945312 386.765625 31.613281 C 386.816406 31.246094 386.835938 30.875 386.835938 30.5 C 386.84375 29.785156 386.753906 29.078125 386.570312 28.390625 C 386.308594 27.417969 385.832031 26.570312 385.140625 25.839844 C 384.675781 25.347656 384.136719 24.945312 383.523438 24.648438 C 382.914062 24.347656 382.269531 24.164062 381.59375 24.097656 C 381.277344 24.058594 380.960938 24.042969 380.644531 24.042969 C 379.957031 24.035156 379.28125 24.117188 378.621094 24.289062 C 377.601562 24.546875 376.71875 25.054688 375.984375 25.804688 C 375.125 26.6875 374.59375 27.734375 374.386719 28.945312 C 374.292969 29.457031 374.246094 29.976562 374.25 30.5 C 374.246094 31.1875 374.328125 31.863281 374.503906 32.527344 C 374.765625 33.519531 375.257812 34.375 375.984375 35.097656 C 377.136719 36.25 378.691406 36.828125 380.644531 36.828125 Z M 380.644531 36.828125 " fill-opacity="1" fill-rule="evenodd"/><path stroke-linecap="round" transform="matrix(0.5558, 0, 0, 0.5558, 2.377405, 0.000111865)" fill="none" stroke-linejoin="miter" d="M 449.924263 89.264428 L 428.959269 89.264428 L 428.959269 7.786997 L 449.924263 7.786997 L 449.924263 37.143611 L 475.443503 37.143611 L 475.443503 7.786997 L 496.415525 7.786997 L 496.415525 89.264428 L 475.443503 89.264428 L 475.443503 56.435904 L 449.924263 56.435904 Z M 538.830456 72.973158 C 539.856567 72.980187 540.861593 72.874764 541.859592 72.649863 C 543.328477 72.305484 544.593545 71.694034 545.633712 70.801458 C 545.851585 70.618726 546.06243 70.421937 546.266246 70.218121 C 547.229104 69.177953 547.917864 67.976138 548.318468 66.612676 C 548.599595 65.684959 548.775299 64.665876 548.859637 63.555427 C 548.880721 63.133738 548.901806 62.719077 548.901806 62.304415 L 548.901806 27.318247 C 554.250233 27.318247 557.820537 25.898559 559.619746 23.066212 C 560.378787 21.836284 560.955096 20.522019 561.341644 19.130444 C 561.707109 17.865375 561.974179 16.466772 562.128798 14.941662 C 562.262333 13.683621 562.318558 12.411525 562.318558 11.146457 L 579.214249 11.146457 C 579.291559 16.572194 578.427095 21.302144 576.634915 25.343335 C 574.835707 29.377497 572.179063 32.589365 568.672013 34.985967 L 568.672013 89.264428 L 548.901806 89.264428 L 548.901806 86.150954 C 546.814443 87.605782 544.565432 88.730288 542.140718 89.524469 C 541.97907 89.580695 541.817423 89.63692 541.648747 89.686117 C 539.568412 90.325679 537.445909 90.719256 535.274208 90.866848 C 534.501111 90.916045 533.735042 90.944157 532.961944 90.944157 C 530.684821 90.958214 528.449867 90.677087 526.257082 90.086722 C 524.373536 89.580695 522.595412 88.828682 520.915682 87.823655 C 517.738955 85.911997 515.250987 83.332663 513.437723 80.092682 C 513.205793 79.685049 512.980892 79.263359 512.770048 78.84167 C 510.81622 74.926986 509.832278 70.29543 509.832278 64.939974 L 509.832278 27.318247 L 529.602485 27.318247 L 529.602485 62.304415 C 529.602485 63.379723 529.693851 64.448003 529.890639 65.509255 C 530.136625 66.774324 530.53723 67.912885 531.099483 68.917912 C 531.310327 69.311488 531.556313 69.676953 531.823383 70.035389 C 532.793268 71.307485 534.051309 72.150864 535.597503 72.558497 C 536.377629 72.783398 537.235064 72.909905 538.169809 72.952074 C 538.39471 72.96613 538.612583 72.973158 538.830456 72.973158 Z M 60.894659 86.783488 C 61.372573 84.281464 61.604502 81.751327 61.590446 79.200106 L 61.590446 27.318247 L 41.820239 27.318247 L 41.820239 30.431721 C 39.901552 29.075286 37.701739 27.999978 35.227827 27.198768 C 32.753916 26.397558 30.076188 25.996953 27.201671 25.996953 C 23.603255 25.996953 20.173514 26.699769 16.898392 28.098373 C 13.623271 29.496976 10.706586 31.514057 8.148336 34.149616 C 8.049942 34.255039 7.94452 34.360461 7.853154 34.465883 C 5.379242 37.108471 3.48164 40.12355 2.160346 43.497066 C 1.605122 44.874585 1.169376 46.287244 0.832024 47.735045 C 0.262743 50.244097 -0.0113547 52.78829 -0.00432653 55.360596 C -0.00432653 60.947981 1.120179 65.839579 3.355133 70.035389 C 5.590087 74.231199 8.682476 77.50632 12.639329 79.860753 C 14.283918 80.837667 16.012845 81.610764 17.826109 82.180045 C 20.53195 83.009367 23.294016 83.417001 26.119335 83.395916 C 29.155499 83.395916 31.994875 82.96017 34.630434 82.074622 C 37.265993 81.196103 39.578257 79.994288 41.574253 78.483234 L 41.574253 80.63385 C 41.574253 84.232267 40.077256 87.050558 37.083261 89.088724 C 36.275023 89.63692 35.417587 90.09375 34.510955 90.473271 C 31.896481 91.569663 28.698669 92.110831 24.924548 92.082719 C 19.80805 92.047578 14.101186 90.78251 7.7899 88.308598 L 7.7899 107.115948 C 10.08108 107.762538 12.393343 108.310735 14.726692 108.760537 C 19.337163 109.632028 23.793015 110.04669 28.101275 109.997492 C 30.287032 109.976408 32.458733 109.807732 34.623406 109.505521 C 38.320217 108.992466 41.883492 107.980411 45.292149 106.462329 C 50.32431 104.185206 54.302247 100.769522 57.211904 96.215275 C 58.968943 93.474294 60.191843 90.332708 60.894659 86.783488 Z M 710.436978 86.783488 C 710.914893 84.281464 711.146822 81.751327 711.132766 79.200106 L 711.132766 27.318247 L 691.362559 27.318247 L 691.362559 30.431721 C 689.4509 29.075286 687.244059 27.999978 684.777175 27.198768 C 682.296236 26.397558 679.618508 25.996953 676.743991 25.996953 C 673.152603 25.996953 669.715834 26.699769 666.440712 28.098373 C 663.165591 29.496976 660.248905 31.514057 657.697684 34.149616 C 657.592262 34.255039 657.493868 34.360461 657.395474 34.465883 C 654.921562 37.108471 653.02396 40.12355 651.702666 43.497066 C 651.147441 44.874585 650.711696 46.287244 650.381372 47.735045 C 649.805063 50.244097 649.530965 52.78829 649.545022 55.360596 C 649.545022 60.947981 650.662499 65.839579 652.897453 70.035389 C 655.139435 74.231199 658.231824 77.50632 662.181649 79.860753 C 663.826238 80.837667 665.555164 81.610764 667.375457 82.180045 C 670.07427 83.009367 672.843364 83.417001 675.668683 83.395916 C 678.697819 83.395916 681.537195 82.96017 684.172754 82.074622 C 686.808313 81.196103 689.127605 79.994288 691.123602 78.483234 L 691.123602 80.63385 C 691.123602 84.232267 689.626604 87.050558 686.632609 89.088724 C 685.817343 89.63692 684.959907 90.09375 684.060303 90.473271 C 681.4388 91.569663 678.240989 92.110831 674.466868 92.082719 C 669.357398 92.047578 663.650534 90.78251 657.33222 88.308598 L 657.33222 107.115948 C 659.623399 107.762538 661.935663 108.310735 664.269012 108.760537 C 668.879483 109.632028 673.342363 110.04669 677.643595 109.997492 C 679.829352 109.976408 682.001053 109.807732 684.165726 109.505521 C 687.862536 108.992466 691.425812 107.980411 694.841497 106.462329 C 699.873658 104.185206 703.844567 100.769522 706.761252 96.215275 C 708.518291 93.474294 709.741191 90.332708 710.436978 86.783488 Z M 331.541977 89.264428 L 331.541977 27.318247 L 351.312184 27.318247 L 351.312184 30.431721 C 353.399547 28.976892 355.648558 27.852387 358.059216 27.058205 C 358.227891 27.009008 358.396567 26.952783 358.565243 26.903586 C 360.63855 26.256995 362.768081 25.863418 364.932754 25.722855 C 365.705851 25.673658 366.478948 25.638517 367.245018 25.645546 C 369.522141 25.631489 371.757095 25.912616 373.956908 26.495953 C 375.840454 27.009008 377.618578 27.753993 379.29128 28.759019 C 382.587486 30.733932 385.138707 33.41166 386.966028 36.792203 C 387.134703 37.087386 387.289323 37.382569 387.436914 37.684779 C 388.51925 39.85648 389.278292 42.133603 389.728094 44.516149 C 390.12167 46.554314 390.339543 48.726015 390.367656 51.045307 C 390.367656 51.249124 390.374684 51.445912 390.374684 51.6427 L 390.374684 89.264428 L 370.604477 89.264428 L 370.604477 54.278259 C 370.611505 53.202951 370.513111 52.134671 370.316322 51.07342 C 370.070337 49.808351 369.669732 48.676818 369.114508 47.664763 C 368.896635 47.278215 368.657677 46.905722 368.390607 46.554314 C 367.413693 45.27519 366.155653 44.431811 364.609459 44.024178 C 363.836361 43.806305 362.978926 43.67277 362.037153 43.630601 C 361.81928 43.623573 361.601407 43.616544 361.376506 43.616544 C 360.357423 43.609516 359.352397 43.70791 358.354398 43.93984 C 356.885513 44.277191 355.620445 44.895669 354.57325 45.781217 C 354.355377 45.970977 354.144532 46.160737 353.947744 46.364554 C 352.97083 47.404721 352.289098 48.613564 351.895522 49.969999 C 351.614395 50.897716 351.424635 51.916798 351.354353 53.034276 C 351.326241 53.448937 351.312184 53.863598 351.312184 54.278259 L 351.312184 89.264428 Z M 581.849808 89.264428 L 581.849808 27.318247 L 601.620015 27.318247 L 601.620015 30.431721 C 603.70035 28.976892 605.94936 27.852387 608.367047 27.058205 C 608.535722 27.009008 608.704398 26.952783 608.866046 26.903586 C 610.94638 26.256995 613.068884 25.863418 615.240585 25.722855 C 616.013682 25.673658 616.779751 25.638517 617.552848 25.645546 C 619.822943 25.631489 622.064926 25.912616 624.257711 26.495953 C 626.148285 27.009008 627.919381 27.753993 629.59911 28.759019 C 632.88126 30.733932 635.446538 33.41166 637.26683 36.792203 C 637.428478 37.087386 637.597154 37.382569 637.737717 37.684779 C 638.827081 39.85648 639.586122 42.133603 640.035924 44.516149 C 640.429501 46.554314 640.640346 48.726015 640.675487 51.045307 C 640.675487 51.249124 640.682515 51.445912 640.682515 51.6427 L 640.682515 89.264428 L 620.912308 89.264428 L 620.912308 54.278259 C 620.912308 53.202951 620.820942 52.134671 620.624153 51.07342 C 620.378168 49.808351 619.977563 48.676818 619.41531 47.664763 C 619.204465 47.278215 618.95848 46.905722 618.69141 46.554314 C 617.721524 45.27519 616.463484 44.431811 614.917289 44.024178 C 614.137164 43.806305 613.279729 43.67277 612.344984 43.630601 C 612.120083 43.623573 611.90221 43.616544 611.684337 43.616544 C 610.658226 43.609516 609.653199 43.70791 608.662229 43.93984 C 607.186316 44.277191 605.921248 44.895669 604.874052 45.781217 C 604.663207 45.970977 604.452363 46.160737 604.255574 46.364554 C 603.27866 47.404721 602.589901 48.613564 602.196324 49.969999 C 601.90817 50.897716 601.732466 51.916798 601.662184 53.034276 C 601.634072 53.448937 601.620015 53.863598 601.620015 54.278259 L 601.620015 89.264428 Z M 69.736081 27.318247 L 91.783411 27.318247 C 93.224183 29.714849 94.700096 32.132535 96.21115 34.564278 C 97.729232 37.003048 99.212173 39.420734 100.652946 41.817336 C 102.164 39.420734 103.682082 37.003048 105.207192 34.564278 C 106.718246 32.132535 108.236328 29.714849 109.75441 27.318247 L 131.562783 27.318247 C 128.449309 32.195788 125.272582 37.101442 122.032601 42.056293 C 118.799649 47.004116 115.629949 51.965996 112.509448 56.913818 C 115.784569 62.262246 119.101859 67.659871 122.45429 73.092637 C 125.81375 78.518375 129.088871 83.908972 132.279655 89.264428 L 110.232324 89.264428 C 108.636933 86.551559 107.020457 83.810577 105.382896 81.05554 C 103.745335 78.30753 102.128859 75.566549 100.533467 72.85368 C 98.931047 75.566549 97.272402 78.30753 95.557532 81.05554 C 93.842661 83.810577 92.184016 86.551559 90.588624 89.264428 L 68.780251 89.264428 C 72.055373 84.077647 75.365635 78.778417 78.725094 73.38782 C 82.077525 67.997223 85.394816 62.70502 88.669937 57.511212 C 85.549435 52.563389 82.393792 47.531228 79.195981 42.414729 C 76.005197 37.305259 72.849555 32.273098 69.736081 27.318247 Z M 214.9589 89.264428 L 214.9589 26.840332 L 196.502958 26.840332 L 196.502958 7.786997 L 254.260357 7.786997 L 254.260357 26.840332 L 235.923894 26.840332 L 235.923894 89.264428 Z M 298.593975 89.264428 L 298.593975 85.673039 C 296.597978 87.345741 294.341939 88.64595 291.825859 89.566638 C 289.309779 90.480299 286.610966 90.944157 283.73645 90.944157 C 279.660118 90.944157 275.829772 90.164032 272.231356 88.603781 C 268.639967 87.050558 265.46324 84.815604 262.708202 81.898919 C 260.100756 79.122796 258.069618 75.974182 256.61479 72.460103 C 256.481255 72.150864 256.354748 71.841625 256.235269 71.532386 C 255.131849 68.671926 254.429033 65.7201 254.126822 62.676908 C 253.979231 61.193966 253.894893 59.711025 253.894893 58.228084 C 253.887865 55.64875 254.119794 53.083473 254.597709 50.53928 C 254.970201 48.578424 255.518397 46.673793 256.235269 44.811331 C 257.275437 42.098462 258.67404 39.575354 260.409995 37.242006 C 261.119839 36.307261 261.885908 35.414685 262.708202 34.564278 C 265.46324 31.73193 268.639967 29.539145 272.231356 27.978894 C 275.829772 26.418643 279.617949 25.645546 283.609943 25.645546 C 286.308755 25.645546 288.859977 26.039122 291.270635 26.847361 C 291.43931 26.903586 291.600958 26.959811 291.762606 27.016036 C 293.941334 27.789134 295.965444 28.857414 297.827906 30.213848 C 298.087947 30.403608 298.340961 30.593369 298.593975 30.797185 L 298.593975 27.318247 L 318.364182 27.318247 L 318.364182 89.264428 Z M 265.407015 18.814176 C 267.634941 15.700703 269.855839 12.559116 272.055652 9.403474 C 274.248437 6.247831 276.462307 3.120301 278.704289 -0.000201268 L 299.788762 -0.000201268 C 302.023716 3.120301 304.244613 6.247831 306.437399 9.403474 C 308.637212 12.559116 310.85811 15.700703 313.093064 18.814176 L 294.876079 18.814176 C 293.92025 17.450714 292.978477 16.073195 292.057788 14.674592 C 291.144128 13.275988 290.202355 11.898469 289.246525 10.542035 C 288.283668 11.898469 287.348923 13.275988 286.435262 14.674592 C 285.507545 16.073195 284.5728 17.450714 283.609943 18.814176 Z M 286.372009 73.451073 C 287.897119 73.46513 289.38006 73.219144 290.820833 72.706088 C 292.725463 71.989216 294.320855 70.836599 295.59998 69.255263 C 297.054808 67.477139 298.024694 65.460058 298.530721 63.211048 C 298.868073 61.784332 299.050805 60.238137 299.071889 58.565436 C 299.071889 58.452985 299.071889 58.347563 299.071889 58.228084 C 299.071889 53.680866 297.912243 50.026224 295.59998 47.271186 C 294.573869 46.027202 293.350969 45.050289 291.910197 44.333416 C 290.469425 43.623573 288.944314 43.229996 287.341895 43.166742 C 287.018599 43.145658 286.695304 43.131602 286.372009 43.131602 C 284.931236 43.117545 283.525605 43.32839 282.162142 43.757108 C 280.131005 44.410726 278.444247 45.563344 277.080785 47.214961 C 275.787604 48.78224 274.880971 50.553336 274.367916 52.528248 C 273.904057 54.23609 273.6651 56.133693 273.6651 58.228084 C 273.658072 59.774279 273.805663 61.299389 274.100846 62.817471 C 274.620929 65.37572 275.618928 67.540393 277.080785 69.318517 C 278.085811 70.541416 279.294654 71.511302 280.707314 72.228174 C 282.127002 72.938018 283.623999 73.331595 285.205335 73.408904 C 285.591883 73.437017 285.978432 73.451073 286.372009 73.451073 Z M 150.370132 91.183115 C 148.057868 91.183115 145.921308 90.620862 143.967481 89.510413 C 142.006625 88.385908 140.467458 86.874854 139.349981 84.956167 C 138.232504 83.03748 137.670252 80.957145 137.670252 78.722191 C 137.670252 76.487237 138.232504 74.427987 139.349981 72.551469 C 140.467458 70.674951 142.006625 69.177953 143.967481 68.053448 C 145.921308 66.942999 148.057868 66.380747 150.370132 66.380747 C 151.97958 66.36669 153.525775 66.654845 155.015744 67.24521 C 155.585025 67.470111 156.133221 67.744209 156.667361 68.053448 C 158.543879 69.177953 160.061961 70.674951 161.221607 72.551469 C 162.374225 74.427987 162.950534 76.487237 162.950534 78.722191 C 162.950534 80.957145 162.374225 83.03748 161.221607 84.956167 C 160.061961 86.874854 158.543879 88.385908 156.667361 89.510413 C 154.797871 90.606806 152.78079 91.169058 150.616118 91.176087 C 150.53178 91.183115 150.45447 91.183115 150.370132 91.183115 Z M 31.032017 66.261268 C 32.261945 66.275324 33.477816 66.113677 34.665575 65.776325 C 36.394501 65.284354 37.877443 64.38475 39.121427 63.084541 C 40.794128 61.341558 41.764014 59.275279 42.04514 56.878678 C 42.136506 56.218031 42.178675 55.550356 42.178675 54.875653 C 42.192731 53.5895 42.024056 52.317403 41.693732 51.080448 C 41.222846 49.330437 40.358382 47.805326 39.121427 46.491061 C 38.278048 45.605513 37.308162 44.881613 36.218797 44.347473 C 35.115377 43.806305 33.955731 43.475981 32.739859 43.356503 C 32.177607 43.286221 31.608326 43.258108 31.032017 43.258108 C 29.80209 43.244052 28.586218 43.391643 27.391432 43.700882 C 25.557082 44.164741 23.975747 45.078401 22.647425 46.427807 C 21.101231 48.016171 20.145401 49.899717 19.779937 52.078446 C 19.611261 52.999135 19.526923 53.93388 19.533951 54.875653 C 19.519895 56.112609 19.674515 57.32848 19.990782 58.523267 C 20.461668 60.308419 21.347216 61.847585 22.647425 63.147794 C 24.72776 65.221101 27.517938 66.261268 31.032017 66.261268 Z M 680.574337 66.261268 C 681.811293 66.275324 683.027164 66.113677 684.207895 65.776325 C 685.936821 65.284354 687.426791 64.38475 688.670775 63.084541 C 690.336448 61.341558 691.306334 59.275279 691.594488 56.878678 C 691.678826 56.218031 691.720995 55.550356 691.720995 54.875653 C 691.735051 53.5895 691.573404 52.317403 691.24308 51.080448 C 690.772194 49.330437 689.90773 47.805326 688.670775 46.491061 C 687.827396 45.605513 686.85751 44.881613 685.761117 44.347473 C 684.664725 43.806305 683.505079 43.475981 682.282179 43.356503 C 681.719927 43.286221 681.150646 43.258108 680.574337 43.258108 C 679.34441 43.244052 678.128538 43.391643 676.933751 43.700882 C 675.099402 44.164741 673.518067 45.078401 672.196773 46.427807 C 670.650579 48.016171 669.694749 49.899717 669.322257 52.078446 C 669.153581 52.999135 669.069243 53.93388 669.076271 54.875653 C 669.062215 56.112609 669.216835 57.32848 669.533102 58.523267 C 670.003988 60.308419 670.889536 61.847585 672.196773 63.147794 C 674.27008 65.221101 677.067286 66.261268 680.574337 66.261268 Z M 680.574337 66.261268 " stroke="#ffffff" stroke-width="0.945" stroke-opacity="1" stroke-miterlimit="4"/></g></svg>