<svg width="149.85" height="75.48" viewBox="0 0 149.85 75.48" xmlns="http://www.w3.org/2000/svg">
    <g id="svgGroup" stroke-linecap="round" fill-rule="evenodd" font-size="9pt" stroke="#ffffff" stroke-width="0.25mm"
       fill="#ffffff" style="stroke:#ffffff;stroke-width:0.25mm;fill:#ffffff">
        <path d="M 106.782 75.48 L 97.125 75.48 L 87.357 75.48 L 87.357 37.74 L 87.357 0 L 97.125 0 L 106.782 0 L 106.782 13.598 L 106.782 27.195 L 118.659 27.195 L 130.425 27.195 L 130.425 13.598 L 130.425 0 L 140.193 0 L 149.85 0 L 149.85 37.74 L 149.85 75.48 L 140.193 75.48 L 130.425 75.48 L 130.425 60.218 L 130.425 45.066 L 118.659 45.066 L 106.782 45.066 L 106.782 60.218 L 106.782 75.48 Z M 17.094 75.48 L 17.094 46.565 L 17.094 17.649 L 8.547 17.649 L 0 17.649 L 0 8.825 L 0 0 L 26.751 0 L 53.502 0 L 53.502 8.825 L 53.502 17.649 L 45.066 17.649 L 36.519 17.649 L 36.519 46.565 L 36.519 75.48 L 26.862 75.48 L 17.094 75.48 Z"
              vector-effect="non-scaling-stroke"/>
    </g>
</svg>