<svg width="712.201" height="110.165" viewBox="0 0 712.201 110.165" xmlns="http://www.w3.org/2000/svg">
    <g id="svgGroup" stroke-linecap="round" fill-rule="evenodd" font-size="9pt" stroke="#ffffff" stroke-width="0.25mm"
       fill="#ffffff" style="stroke:#ffffff;stroke-width:0.25mm;fill:#ffffff">
        <path d="M 450.6 89.4 L 440.16 89.4 L 429.6 89.4 L 429.6 48.6 L 429.6 7.8 L 440.16 7.8 L 450.6 7.8 L 450.6 22.5 L 450.6 37.2 L 463.44 37.2 L 476.16 37.2 L 476.16 22.5 L 476.16 7.8 L 486.72 7.8 L 497.16 7.8 L 497.16 48.6 L 497.16 89.4 L 486.72 89.4 L 476.16 89.4 L 476.16 72.9 L 476.16 56.52 L 463.44 56.52 L 450.6 56.52 L 450.6 72.9 L 450.6 89.4 Z M 539.64 73.08 A 13.383 13.383 0 0 0 542.669 72.758 Q 544.883 72.243 546.455 70.909 A 8.263 8.263 0 0 0 547.08 70.32 A 8.905 8.905 0 0 0 549.14 66.71 Q 549.566 65.321 549.679 63.648 A 18.5 18.5 0 0 0 549.72 62.4 L 549.72 44.88 L 549.72 27.36 Q 557.76 27.36 560.46 23.1 A 15.189 15.189 0 0 0 562.183 19.162 Q 562.733 17.26 562.973 14.966 A 36.576 36.576 0 0 0 563.16 11.16 L 571.62 11.16 L 580.08 11.16 Q 580.2 19.32 577.5 25.38 Q 574.8 31.44 569.52 35.04 L 569.52 62.22 L 569.52 89.4 L 559.68 89.4 L 549.72 89.4 L 549.72 87.84 L 549.72 86.28 A 25.901 25.901 0 0 1 542.96 89.659 A 29.136 29.136 0 0 1 542.46 89.82 A 27.795 27.795 0 0 1 536.077 91 A 33.012 33.012 0 0 1 533.76 91.08 A 25.454 25.454 0 0 1 527.044 90.225 A 21.256 21.256 0 0 1 521.7 87.96 A 20.921 20.921 0 0 1 514.211 80.213 A 25.494 25.494 0 0 1 513.54 78.96 Q 510.6 73.08 510.6 65.04 L 510.6 46.2 L 510.6 27.36 L 520.56 27.36 L 530.4 27.36 L 530.4 44.88 L 530.4 62.4 A 16.936 16.936 0 0 0 530.687 65.61 Q 531.054 67.512 531.893 69.02 A 9.568 9.568 0 0 0 532.62 70.14 A 7.017 7.017 0 0 0 536.403 72.667 Q 537.571 73.002 538.978 73.065 A 14.813 14.813 0 0 0 539.64 73.08 Z M 60.985 86.915 A 39.298 39.298 0 0 0 61.68 79.32 L 61.68 53.34 L 61.68 27.36 L 51.84 27.36 L 41.88 27.36 L 41.88 28.92 L 41.88 30.48 Q 39 28.44 35.28 27.24 Q 31.56 26.04 27.24 26.04 Q 21.84 26.04 16.92 28.14 Q 12 30.24 8.16 34.2 A 27.517 27.517 0 0 0 7.863 34.512 A 28.543 28.543 0 0 0 2.16 43.56 A 28.968 28.968 0 0 0 0.834 47.807 A 33.839 33.839 0 0 0 0 55.44 Q 0 63.84 3.36 70.14 Q 6.72 76.44 12.66 79.98 A 24.364 24.364 0 0 0 17.857 82.305 A 27.588 27.588 0 0 0 26.16 83.52 Q 30.72 83.52 34.68 82.2 Q 38.64 80.88 41.64 78.6 L 41.64 79.62 L 41.64 80.76 Q 41.64 86.16 37.14 89.22 A 14.697 14.697 0 0 1 34.566 90.609 Q 30.629 92.264 24.96 92.22 Q 17.28 92.16 7.8 88.44 L 7.8 97.86 L 7.8 107.28 A 83.303 83.303 0 0 0 14.749 108.922 Q 21.673 110.24 28.14 110.16 A 50.385 50.385 0 0 0 34.673 109.668 A 39.351 39.351 0 0 0 45.36 106.62 Q 52.92 103.2 57.3 96.36 Q 59.935 92.245 60.985 86.915 Z M 711.505 86.915 A 39.298 39.298 0 0 0 712.2 79.32 L 712.2 53.34 L 712.2 27.36 L 702.36 27.36 L 692.4 27.36 L 692.4 28.92 L 692.4 30.48 Q 689.52 28.44 685.8 27.24 Q 682.08 26.04 677.76 26.04 Q 672.36 26.04 667.44 28.14 Q 662.52 30.24 658.68 34.2 A 27.517 27.517 0 0 0 658.383 34.512 A 28.543 28.543 0 0 0 652.68 43.56 A 28.968 28.968 0 0 0 651.354 47.807 A 33.839 33.839 0 0 0 650.52 55.44 Q 650.52 63.84 653.88 70.14 Q 657.24 76.44 663.18 79.98 A 24.364 24.364 0 0 0 668.377 82.305 A 27.588 27.588 0 0 0 676.68 83.52 Q 681.24 83.52 685.2 82.2 Q 689.16 80.88 692.16 78.6 L 692.16 79.62 L 692.16 80.76 Q 692.16 86.16 687.66 89.22 A 14.697 14.697 0 0 1 685.086 90.609 Q 681.149 92.264 675.48 92.22 Q 667.8 92.16 658.32 88.44 L 658.32 97.86 L 658.32 107.28 A 83.303 83.303 0 0 0 665.269 108.922 Q 672.193 110.24 678.66 110.16 A 50.385 50.385 0 0 0 685.193 109.668 A 39.351 39.351 0 0 0 695.88 106.62 Q 703.44 103.2 707.82 96.36 Q 710.455 92.245 711.505 86.915 Z M 332.04 89.4 L 332.04 58.38 L 332.04 27.36 L 342 27.36 L 351.84 27.36 L 351.84 28.92 L 351.84 30.48 A 25.901 25.901 0 0 1 358.601 27.101 A 29.136 29.136 0 0 1 359.1 26.94 A 27.795 27.795 0 0 1 365.484 25.76 A 33.012 33.012 0 0 1 367.8 25.68 A 25.454 25.454 0 0 1 374.517 26.535 A 21.256 21.256 0 0 1 379.86 28.8 A 21.105 21.105 0 0 1 387.547 36.847 A 25.517 25.517 0 0 1 388.02 37.74 A 26.249 26.249 0 0 1 390.314 44.584 Q 390.91 47.636 390.956 51.125 A 44.59 44.59 0 0 1 390.96 51.72 L 390.96 70.56 L 390.96 89.4 L 381.12 89.4 L 371.16 89.4 L 371.16 71.88 L 371.16 54.36 A 16.936 16.936 0 0 0 370.874 51.15 Q 370.506 49.248 369.668 47.74 A 9.568 9.568 0 0 0 368.94 46.62 A 7.017 7.017 0 0 0 365.158 44.093 Q 363.99 43.758 362.583 43.695 A 14.813 14.813 0 0 0 361.92 43.68 A 13.383 13.383 0 0 0 358.892 44.002 Q 356.678 44.517 355.105 45.851 A 8.263 8.263 0 0 0 354.48 46.44 A 8.905 8.905 0 0 0 352.42 50.05 Q 351.994 51.439 351.881 53.112 A 18.5 18.5 0 0 0 351.84 54.36 L 351.84 71.88 L 351.84 89.4 L 342 89.4 L 332.04 89.4 Z M 582.72 89.4 L 582.72 58.38 L 582.72 27.36 L 592.68 27.36 L 602.52 27.36 L 602.52 28.92 L 602.52 30.48 A 25.901 25.901 0 0 1 609.281 27.101 A 29.136 29.136 0 0 1 609.78 26.94 A 27.795 27.795 0 0 1 616.164 25.76 A 33.012 33.012 0 0 1 618.48 25.68 A 25.454 25.454 0 0 1 625.197 26.535 A 21.256 21.256 0 0 1 630.54 28.8 A 21.105 21.105 0 0 1 638.227 36.847 A 25.517 25.517 0 0 1 638.7 37.74 A 26.249 26.249 0 0 1 640.994 44.584 Q 641.59 47.636 641.636 51.125 A 44.59 44.59 0 0 1 641.64 51.72 L 641.64 70.56 L 641.64 89.4 L 631.8 89.4 L 621.84 89.4 L 621.84 71.88 L 621.84 54.36 A 16.936 16.936 0 0 0 621.554 51.15 Q 621.186 49.248 620.348 47.74 A 9.568 9.568 0 0 0 619.62 46.62 A 7.017 7.017 0 0 0 615.838 44.093 Q 614.67 43.758 613.263 43.695 A 14.813 14.813 0 0 0 612.6 43.68 A 13.383 13.383 0 0 0 609.572 44.002 Q 607.358 44.517 605.785 45.851 A 8.263 8.263 0 0 0 605.16 46.44 A 8.905 8.905 0 0 0 603.1 50.05 Q 602.674 51.439 602.561 53.112 A 18.5 18.5 0 0 0 602.52 54.36 L 602.52 71.88 L 602.52 89.4 L 592.68 89.4 L 582.72 89.4 Z M 69.84 27.36 L 80.88 27.36 L 91.92 27.36 Q 94.08 30.96 96.36 34.62 Q 98.64 38.28 100.8 41.88 Q 103.08 38.28 105.36 34.62 Q 107.64 30.96 109.92 27.36 L 120.84 27.36 L 131.76 27.36 Q 127.08 34.68 122.22 42.12 Q 117.36 49.56 112.68 57 Q 117.6 65.04 122.64 73.2 Q 127.68 81.36 132.48 89.4 L 121.44 89.4 L 110.4 89.4 Q 108 85.32 105.54 81.18 Q 103.08 77.04 100.68 72.96 Q 98.28 77.04 95.7 81.18 Q 93.12 85.32 90.72 89.4 L 79.8 89.4 L 68.88 89.4 Q 73.8 81.6 78.84 73.5 Q 83.88 65.4 88.8 57.6 Q 84.12 50.16 79.32 42.48 Q 74.52 34.8 69.84 27.36 Z M 215.28 89.4 L 215.28 58.14 L 215.28 26.88 L 206.04 26.88 L 196.8 26.88 L 196.8 17.34 L 196.8 7.8 L 225.72 7.8 L 254.64 7.8 L 254.64 17.34 L 254.64 26.88 L 245.52 26.88 L 236.28 26.88 L 236.28 58.14 L 236.28 89.4 L 225.84 89.4 L 215.28 89.4 Z M 299.04 89.4 L 299.04 87.54 L 299.04 85.8 Q 296.04 88.32 292.26 89.7 Q 288.48 91.08 284.16 91.08 Q 278.04 91.08 272.64 88.74 Q 267.24 86.4 263.1 82.02 A 31.4 31.4 0 0 1 256.997 72.568 A 36.058 36.058 0 0 1 256.62 71.64 A 34.229 34.229 0 0 1 254.509 62.766 A 42.223 42.223 0 0 1 254.28 58.32 A 40.757 40.757 0 0 1 254.98 50.613 A 32.791 32.791 0 0 1 256.62 44.88 A 31.481 31.481 0 0 1 260.801 37.303 A 28.369 28.369 0 0 1 263.1 34.62 Q 267.24 30.36 272.64 28.02 Q 278.04 25.68 284.04 25.68 Q 288.084 25.68 291.707 26.889 A 22.79 22.79 0 0 1 292.2 27.06 A 23.915 23.915 0 0 1 298.277 30.256 A 22.381 22.381 0 0 1 299.04 30.84 L 299.04 29.04 L 299.04 27.36 L 309 27.36 L 318.84 27.36 L 318.84 58.38 L 318.84 89.4 L 309 89.4 L 299.04 89.4 Z M 265.8 18.84 Q 269.16 14.16 272.46 9.42 Q 275.76 4.68 279.12 0 L 289.74 0 L 300.24 0 Q 303.6 4.68 306.9 9.42 Q 310.2 14.16 313.56 18.84 L 304.5 18.84 L 295.32 18.84 Q 293.88 16.8 292.5 14.7 Q 291.12 12.6 289.68 10.56 Q 288.24 12.6 286.86 14.7 Q 285.48 16.8 284.04 18.84 L 274.98 18.84 L 265.8 18.84 Z M 286.8 73.56 A 12.769 12.769 0 0 0 291.255 72.812 A 11.185 11.185 0 0 0 296.04 69.36 A 14.607 14.607 0 0 0 298.979 63.306 Q 299.487 61.162 299.518 58.656 A 26.507 26.507 0 0 0 299.52 58.32 Q 299.52 51.48 296.04 47.34 A 11.293 11.293 0 0 0 287.774 43.231 A 15.249 15.249 0 0 0 286.8 43.2 A 13.626 13.626 0 0 0 282.584 43.822 A 10.913 10.913 0 0 0 277.5 47.28 A 13.869 13.869 0 0 0 274.783 52.604 Q 274.08 55.166 274.08 58.32 A 22.971 22.971 0 0 0 274.513 62.912 Q 275.296 66.752 277.5 69.42 A 11.172 11.172 0 0 0 285.631 73.517 A 15.696 15.696 0 0 0 286.8 73.56 Z M 150.6 91.32 Q 147.12 91.32 144.18 89.64 Q 141.24 87.96 139.56 85.08 Q 137.88 82.2 137.88 78.84 Q 137.88 75.48 139.56 72.66 Q 141.24 69.84 144.18 68.16 Q 147.12 66.48 150.6 66.48 A 12.391 12.391 0 0 1 155.25 67.343 A 11.77 11.77 0 0 1 156.9 68.16 Q 159.72 69.84 161.46 72.66 Q 163.2 75.48 163.2 78.84 Q 163.2 82.2 161.46 85.08 Q 159.72 87.96 156.9 89.64 A 12.022 12.022 0 0 1 150.844 91.318 A 14.275 14.275 0 0 1 150.6 91.32 Z M 31.08 66.36 A 12.963 12.963 0 0 0 34.716 65.875 A 9.95 9.95 0 0 0 39.18 63.18 A 10.812 10.812 0 0 0 42.109 56.967 A 14.878 14.878 0 0 0 42.24 54.96 A 14.202 14.202 0 0 0 41.755 51.153 A 10.779 10.779 0 0 0 39.18 46.56 A 10.184 10.184 0 0 0 32.791 43.42 A 14.193 14.193 0 0 0 31.08 43.32 A 14.163 14.163 0 0 0 27.433 43.765 A 10.195 10.195 0 0 0 22.68 46.5 A 10.673 10.673 0 0 0 19.807 52.156 A 15.235 15.235 0 0 0 19.56 54.96 A 13.844 13.844 0 0 0 20.018 58.612 A 10.233 10.233 0 0 0 22.68 63.24 Q 25.8 66.36 31.08 66.36 Z M 681.6 66.36 A 12.963 12.963 0 0 0 685.236 65.875 A 9.95 9.95 0 0 0 689.7 63.18 A 10.812 10.812 0 0 0 692.629 56.967 A 14.878 14.878 0 0 0 692.76 54.96 A 14.202 14.202 0 0 0 692.275 51.153 A 10.779 10.779 0 0 0 689.7 46.56 A 10.184 10.184 0 0 0 683.311 43.42 A 14.193 14.193 0 0 0 681.6 43.32 A 14.163 14.163 0 0 0 677.953 43.765 A 10.195 10.195 0 0 0 673.2 46.5 A 10.673 10.673 0 0 0 670.327 52.156 A 15.235 15.235 0 0 0 670.08 54.96 A 13.844 13.844 0 0 0 670.538 58.612 A 10.233 10.233 0 0 0 673.2 63.24 Q 676.32 66.36 681.6 66.36 Z"
              vector-effect="non-scaling-stroke"/>
    </g>
</svg>